<?xml version="1.0" encoding="UTF-8" standalone="no"?>
<svg
   width="88.336998"
   height="100"
   version="1.1"
   id="svg55"
   xmlns="http://www.w3.org/2000/svg"
   xmlns:svg="http://www.w3.org/2000/svg">
  <defs
     id="defs55" />
  <g
     id="black"
     style="display:none">
    <path
       d="M 0,0 A 6.9,6.9 0 0 1 3.592,1.708 7,7 0 0 1 4.934,3.379 C 5.26,3.951 16.695,23.351 17.008,24.321 a 6.85,6.85 0 0 1 0.105,3.877 7,7 0 0 1 -0.674,1.657 C 16.156,30.351 4.965,50.21 4.361,50.907 a 6.87,6.87 0 0 1 -5.197,2.385 c -0.607,0 -23.293,0.147 -24.033,0.032 a 6.88,6.88 0 0 1 -4.918,-3.376 c -0.324,-0.569 -11.76,-19.973 -12.072,-20.929 a 6.9,6.9 0 0 1 0.564,-5.557 c 0.285,-0.498 11.469,-20.347 12.078,-21.05 a 6.87,6.87 0 0 1 3.274,-2.1 6.8,6.8 0 0 1 1.916,-0.278 C -23.422,0.034 -0.73,-0.112 0,0"
       clip-path="url(#clipPath23)"
       style="fill:#231f20;fill-opacity:1;fill-rule:nonzero;stroke:none"
       transform="matrix(1.4293749,-0.82525,-0.82525,-1.4293749,83.93529,76.998199)"
       id="path1" />
    <path
       d="m 0,0 c 0,0 3.301,-0.823 5.775,-5.866 2.474,-5.043 8.709,-11.917 8.161,-18.059 0,0 0.183,-4.857 -5.227,-13.566 0,0 -5.959,-10.633 -9.166,-10.45 0,0 4.398,-0.917 8.707,6.233 0,0 8.436,13.475 8.436,14.85 0,0 1.923,2.475 0.089,6.142 0,0 -8.525,15.032 -9.533,15.582 C 7.242,-5.134 4.4,0.092 0,0"
       clip-path="url(#clipPath25)"
       style="fill:#656d69;fill-opacity:1;fill-rule:nonzero;stroke:none"
       transform="matrix(1.4293749,-0.82525,-0.82525,-1.4293749,39.494639,6.4201923)"
       id="path2" />
    <path
       d="m 0,0 c 0,0 -3.066,-0.831 -5.365,-5.919 -2.299,-5.089 -8.088,-12.024 -7.576,-18.222 0,0 -0.172,-4.902 4.853,-13.689 0,0 5.535,-10.729 8.514,-10.544 0,0 -4.086,-0.925 -8.09,6.289 0,0 -7.832,13.596 -7.832,14.983 0,0 -1.787,2.498 -0.084,6.199 0,0 7.918,15.167 8.855,15.723 0,0 2.637,5.273 6.725,5.18"
       clip-path="url(#clipPath27)"
       style="fill:#656d69;fill-opacity:1;fill-rule:nonzero;stroke:none"
       transform="matrix(1.4293749,-0.82525,-0.82525,-1.4293749,7.2489631,24.099104)"
       id="path3" />
  </g>
  <g
     id="white"
     style="display:none">
    <path
       d="M 0,0 A 6.9,6.9 0 0 1 3.592,1.708 7,7 0 0 1 4.934,3.379 C 5.26,3.951 16.695,23.351 17.008,24.321 a 6.85,6.85 0 0 1 0.105,3.877 7,7 0 0 1 -0.674,1.657 C 16.156,30.351 4.965,50.21 4.361,50.907 a 6.87,6.87 0 0 1 -5.197,2.385 c -0.607,0 -23.293,0.147 -24.033,0.032 a 6.88,6.88 0 0 1 -4.918,-3.376 c -0.324,-0.569 -11.76,-19.973 -12.072,-20.929 a 6.9,6.9 0 0 1 0.564,-5.557 c 0.285,-0.498 11.469,-20.347 12.078,-21.05 a 6.87,6.87 0 0 1 3.274,-2.1 6.8,6.8 0 0 1 1.916,-0.278 C -23.422,0.034 -0.73,-0.112 0,0"
       style="fill:#e3d2a2;fill-opacity:1;fill-rule:nonzero;stroke:none"
       transform="matrix(1.4293749,-0.82525,-0.82525,-1.4293749,83.93529,76.998199)"
       id="path4" />
    <path
       d="m 0,0 c 0,0 3.301,-0.823 5.775,-5.866 2.474,-5.043 8.709,-11.917 8.161,-18.059 0,0 0.183,-4.857 -5.227,-13.566 0,0 -5.959,-10.633 -9.166,-10.45 0,0 4.398,-0.917 8.707,6.233 0,0 8.436,13.475 8.436,14.85 0,0 1.923,2.475 0.089,6.142 0,0 -8.525,15.032 -9.533,15.582 C 7.242,-5.134 4.4,0.092 0,0"
       style="fill:#ebe5b1;fill-opacity:1;fill-rule:nonzero;stroke:none"
       transform="matrix(1.4293749,-0.82525,-0.82525,-1.4293749,39.494639,6.4201923)"
       id="path5" />
    <path
       d="m 0,0 c 0,0 -3.066,-0.831 -5.365,-5.919 -2.299,-5.089 -8.088,-12.024 -7.576,-18.222 0,0 -0.172,-4.902 4.853,-13.689 0,0 5.535,-10.729 8.514,-10.544 0,0 -4.086,-0.925 -8.09,6.289 0,0 -7.832,13.596 -7.832,14.983 0,0 -1.787,2.498 -0.084,6.199 0,0 7.918,15.167 8.855,15.723 0,0 2.637,5.273 6.725,5.18"
       style="fill:#ebe5b1;fill-opacity:1;fill-rule:nonzero;stroke:none"
       transform="matrix(1.4293749,-0.82525,-0.82525,-1.4293749,7.2489631,24.099104)"
       id="path6" />
  </g>
  <g
     id="Ant"
     style="display:none">
    <path
       d="m 0,0 c 0,0 0.232,5.079 -0.521,5.769 0,0 -0.315,0.307 -0.399,0.969 0,0 -0.068,-0.899 -0.455,-1.06 0,0 -0.922,-1.183 -0.307,-5.623 0,0 -1.492,3.252 -0.625,5.294 0,0 1.311,6.152 0.53,6.569 l -0.082,0.272 c 0,0 0.722,1.103 1.675,0.063 L -0.262,11.98 c 0,0 -0.826,0.534 0.688,-6.472 C 0.426,5.508 1.43,3.454 0,0 m 1.457,-3.646 c 0,0 -1.061,-6.363 0.148,-7.928 0.09,-0.232 0.336,-0.4 0.633,-0.396 a 0.7,0.7 0 0 1 0.274,0.06 l 0.004,-0.003 c -0.127,-0.329 -0.461,-0.931 -1.381,-1.616 0,0 -0.819,0.067 -0.928,-0.443 0,0 -0.473,0.345 -1.527,0.055 0,0 -0.313,0.425 -0.823,0.415 0,0 -1.181,0.727 -1.152,1.432 0,0 0.024,-0.006 0.066,-0.005 0.002,0.005 0.006,0 0.006,0.003 0.327,0.002 0.592,0.214 0.641,0.491 0.465,0.775 0.814,2.771 -0.174,7.869 0,0 1.801,2.175 4.213,0.066 m 8.641,9.103 C 9.344,6.187 9.199,6.729 8.207,6.879 7.727,6.948 6.506,6.643 6.01,6.572 4.607,6.371 3.35,6.245 1.973,5.926 c 0.004,0.073 0.004,0.14 0.002,0.21 a 18,18 0 0 1 -0.116,1.75 c 1.373,0.197 2.584,0.52 3.953,0.833 0.487,0.11 1.735,0.262 2.163,0.495 0.867,0.496 0.816,1.052 1.257,2.005 1.274,2.781 4.428,5.063 5.393,7.992 -0.086,0.006 -0.455,0.046 -0.506,0.045 C 13.412,18.179 12.65,17.31 11.914,16.291 10.652,14.55 9.184,11.267 7.619,10.085 6.285,9.069 3.395,8.299 1.711,8.873 1.234,11.482 0.16,13.311 -1.061,13.292 -2.268,13.276 -3.273,11.472 -3.689,8.904 -5.375,8.409 -8.105,9.076 -9.416,10.01 c -1.598,1.138 -3.166,4.373 -4.479,6.075 -0.765,0.993 -1.548,1.841 -2.287,2.896 -0.054,0 -0.425,-0.049 -0.507,-0.056 1.052,-2.903 4.271,-5.085 5.632,-7.828 0.467,-0.94 0.432,-1.497 1.313,-1.962 0.433,-0.227 1.691,-0.341 2.178,-0.436 1.304,-0.258 2.47,-0.529 3.763,-0.689 -0.06,-0.622 -0.09,-1.28 -0.078,-1.958 0,-0.006 -0.002,-0.008 0.002,-0.014 -1.318,0.246 -2.529,0.342 -3.883,0.488 -0.494,0.059 -1.724,0.328 -2.207,0.242 -0.986,-0.177 -1.115,-0.72 -1.844,-1.476 -2.123,-2.206 -5.849,-3.32 -7.722,-5.771 l 0.463,-0.212 c 1.019,0.787 2.025,1.36 3.056,2.076 1.764,1.23 4.229,3.842 6.096,4.449 1.641,0.532 4.744,0.286 6.09,-0.894 0.139,-1.776 0.537,-3.339 1.094,-4.423 -1.41,-0.224 -2.69,-0.54 -4.118,-0.856 -0.556,-0.122 -1.98,-0.284 -2.464,-0.544 -0.993,-0.537 -0.936,-1.139 -1.43,-2.173 -1.459,-3.018 -5.053,-5.497 -6.154,-8.674 0.101,-0.01 0.521,-0.051 0.58,-0.055 0.802,1.171 1.672,2.118 2.509,3.222 1.436,1.889 3.114,5.454 4.893,6.735 1.582,1.148 5.082,2.018 6.957,1.245 q 0.103,-0.107 0.213,-0.19 c -1.951,-0.807 -3.363,-3.724 -3.311,-7.173 0.043,-2.853 1.071,-5.31 2.541,-6.499 0,0 1.543,-0.456 1.897,-1.819 0,0 1.078,1.783 1.853,1.634 l 0.27,0.2 c 1.459,1.223 2.436,3.735 2.393,6.617 -0.053,3.584 -1.67,6.54 -3.754,7.148 0.099,0.096 0.201,0.197 0.293,0.315 L 0.43,-0.376 c 1.826,0.871 5.406,0.104 7.041,-1.007 1.816,-1.232 3.597,-4.742 5.092,-6.588 0.873,-1.077 1.763,-1.997 2.605,-3.144 0.059,0.003 0.477,0.058 0.574,0.07 -1.195,3.144 -4.857,5.512 -6.406,8.486 C 8.807,-1.537 8.854,-0.936 7.844,-0.432 7.348,-0.184 5.922,-0.063 5.363,0.039 3.879,0.318 2.557,0.612 1.09,0.784 1.521,1.791 1.82,3.135 1.928,4.649 1.959,4.698 2.002,4.748 2.037,4.788 h 0.002 c 1.258,1.285 4.461,1.648 6.15,1.155 1.883,-0.55 4.428,-3.093 6.229,-4.266 1.051,-0.687 2.074,-1.228 3.115,-1.983 0.051,0.021 0.379,0.189 0.457,0.226 -1.947,2.393 -5.707,3.396 -7.892,5.537"
       style="fill:#289ee0;fill-opacity:1;fill-rule:nonzero;stroke:#2187b2;stroke-width:0.275;stroke-linecap:butt;stroke-linejoin:miter;stroke-miterlimit:4;stroke-dasharray:none;stroke-opacity:1"
       transform="matrix(1.4542905,-0.839635,-0.839635,-1.4542905,49.361135,56.754953)"
       id="path7" />
    <path
       d="m 0,0 0.529,0.125 c 0,0 0.696,-3.736 0.412,-4.325 0,0 -1.367,-1.599 -2.734,-0.687 0,0 -0.937,3.441 1.793,4.887 M 4.033,0.232 4.564,0.123 C 7.334,-1.238 6.5,-4.705 6.5,-4.705 5.162,-5.657 3.746,-4.104 3.746,-4.104 3.445,-3.524 4.033,0.232 4.033,0.232 m -8.635,-4.749 c 0.969,-0.104 1.831,-0.511 2.709,-0.838 a 32,32 0 0 1 -0.099,-0.532 c 0.318,-1.198 1.451,-1.259 1.451,-1.259 1.594,-0.581 6.562,-0.052 6.562,-0.052 0.749,0.236 1.034,1.298 1.034,1.298 0.15,0.22 0.164,0.546 0.091,0.94 0.788,0.328 1.561,0.698 2.438,0.818 0.998,0.135 3.184,-0.818 3.828,0.363 -0.795,0.21 -3.055,0.188 -4.047,0.041 C 8.727,-3.829 7.838,-4.288 7.07,-4.623 q -0.01,0.022 -0.011,0.04 C 7.225,-0.612 4.443,0.475 4.443,0.475 4.229,4.34 2.471,4.353 2.471,4.353 L 2.592,4.159 C 4.016,3.16 3.014,2.253 3.014,2.253 L 3.004,2.246 C 2.957,2.3 2.934,2.334 2.934,2.334 c 0,0 -0.987,-0.075 -1.377,-0.093 l -0.12,0.03 A 1,1 0 0 1 1.344,2.194 Q 1.296,2.222 1.295,2.224 c -1.027,0.88 0.363,1.96 0.363,1.96 L 1.73,4.341 C -0.004,3.984 -0.08,0.757 -0.08,0.304 Q -0.1,0.264 -0.123,0.225 c -3.078,-1.998 -1.832,-5.117 -1.832,-5.117 0,0 0.004,-0.041 0.019,-0.084 -0.808,0.314 -1.783,0.796 -2.459,0.87 -0.998,0.115 -3.255,0.074 -4.046,-0.161 0.675,-1.162 2.836,-0.138 3.839,-0.25"
       style="fill:#289ee0;fill-opacity:1;fill-rule:nonzero;stroke:#2187b2;stroke-width:0.275;stroke-linecap:butt;stroke-linejoin:miter;stroke-miterlimit:4;stroke-dasharray:none;stroke-opacity:1"
       transform="matrix(1.4542905,-0.839635,-0.839635,-1.4542905,26.593337,28.634382)"
       id="path8" />
    <path
       d="M 0,0 C -0.625,-5.238 0.65,-6.778 0.65,-6.778 0.906,-7.03 1.014,-7.695 1.047,-7.934 1.035,-7.573 1.354,-6.848 1.354,-6.848 2.656,-5.109 1.799,0.105 1.799,0.105 0.617,0.715 0,0 0,0"
       style="fill:#289ee0;fill-opacity:1;fill-rule:nonzero;stroke:#2187b2;stroke-width:0.275;stroke-linecap:butt;stroke-linejoin:miter;stroke-miterlimit:4;stroke-dasharray:none;stroke-opacity:1"
       transform="matrix(1.4542905,-0.839635,-0.839635,-1.4542905,50.275681,63.540061)"
       id="path9" />
  </g>
  <g
     id="Beetle"
     style="display:none">
    <path
       d="M 0,0 -0.166,0.475 -0.305,0.723 -0.252,0.711 -0.398,1.13 c 0,0 6.113,-0.732 6.71,0.134 L 6.562,0.701 Q 6.609,0.719 6.654,0.739 L 6.742,0.318 6.734,0.316 6.844,0.066 C 6.844,0.066 2.525,-0.598 0,0 m -0.199,2.924 c 0,0 -0.008,0.204 0.006,0.472 L -0.279,3.395 c -0.133,0.039 0.023,0.394 0.16,0.654 0.064,0.331 0.18,0.634 0.385,0.735 0,0 4.984,-1.328 5.316,-1.063 L 5.652,3.479 C 6.037,3.214 5.934,2.817 5.934,2.817 L 5.84,2.843 5.914,2.592 Z m -5.391,-23.953 0.377,0.839 c 0,0 0.617,1.533 -0.576,3.81 l 0.289,2.889 1.025,0.515 0.004,-0.049 c 0,0 1.229,-6.592 6.227,-7.542 l 0.435,-0.297 0.383,0.419 c 0.014,-0.003 0.028,0 0.043,0 0.028,0.021 0.063,0.038 0.092,0.056 0.09,0.237 0.637,2.054 0.674,8.964 l 0.041,0.002 c 0.133,-3.006 0.334,-6.204 0.638,-8.822 q 0.02,0.009 0.042,0.01 l 0.183,-0.331 c 0,0 0.195,0.016 0.522,0.089 a 1,1 0 0 1 0.556,0.16 c 1.719,0.566 4.957,2.404 5.631,8.263 v 0.016 l 1.104,-0.025 0.207,-1.637 0.562,-0.384 0.225,-2.044 0.279,-0.124 1,-1.055 1.391,-0.488 c 0,0 -2.102,4.43 -1.575,4.863 0,0 -0.738,3.502 -3.136,3.91 -0.063,1.156 -0.252,2.321 -0.731,2.847 l -0.021,0.059 1.133,0.05 0.498,1.251 0.732,-1.202 1.084,0.321 -0.152,-2.874 c 0.004,0.037 0.047,0.184 0.57,-0.533 l 0.58,-0.793 1.002,-1.054 -0.09,-1.1 0.399,0.291 0.849,-0.649 -0.195,1.364 c 0,0 -0.676,-0.169 -0.561,0.247 0.123,0.416 -1.625,6.092 -1.625,6.092 l -1.24,0.22 0.529,0.434 -1.277,1.041 -0.387,-0.566 -2.732,-0.115 -0.895,1.741 1.457,1.158 0.079,1.373 1.388,-0.487 0.241,0.829 0.333,1.796 -0.552,0.113 0.068,1.644 -0.842,3.66 L 10.338,6.891 10.254,5.653 9.709,5.629 10.016,4.821 c 0,0 0.08,-1.912 -0.578,-2.486 L 9.328,1.644 7.217,0.147 7.107,0.324 7.281,1.557 7.537,1.979 7.238,2.513 6.543,2.759 6.1,3.56 l 1.218,0.327 -0.57,0.524 0.647,0.847 4.222,7.027 c 0,0 -3.242,2.189 -3.838,6.54 0,0 -2.584,-3.665 -3.845,-2.9 L 5.23,14.339 4.623,12.534 6.787,13.173 7.221,12.646 5.656,10.799 6.34,10.828 7.012,11.131 7.57,10.881 5.895,8.346 5.717,9.295 4.791,8.571 4.746,9.664 4.449,10.198 4.049,9.908 4.092,8.951 3.641,9.891 2.566,9.434 2.395,10.25 1.586,9.938 1.186,9.65 -0.26,11.505 1.699,10.494 0.531,12.223 1.332,12.669 2.311,12.161 1.42,13.903 2.914,14.104 4.395,14.714 1.424,17.051 1.227,18.413 0.471,16.876 -3.506,13.83 c 0,0 -1.396,0.628 -1.234,0.085 l 0.158,-0.54 -0.107,-0.687 0.945,0.314 L -1.789,8.84 -1.045,7.363 0.096,6.319 -0.996,6.271 -0.691,5.6 -0.387,4.793 -0.619,3.824 -0.602,3.415 -0.43,2.601 -1.258,2.7 -1.086,1.89 -0.492,0.445 A 2.5,2.5 0 0 1 -1.127,0.196 l -0.031,-0.076 -0.99,1.039 -0.53,-0.434 -0.707,0.518 0.569,2.763 -0.555,0.113 0.09,1.095 1.246,-0.216 -0.209,1.633 -0.069,1.64 -0.781,-0.991 c 0,0 -1.91,-3.368 -1.482,-3.76 0.428,-0.392 -1.131,-2.376 -0.567,-2.766 0.565,-0.385 1.52,-0.342 1.52,-0.342 l -0.385,-0.566 0.455,-1.075 1.026,-1.599 0.144,-0.866 -0.459,-0.401 -0.037,-0.053 -1.021,1.401 c 0,0 -0.37,-0.974 -0.774,-1.129 -0.402,-0.154 -1.748,-0.76 -1.748,-0.76 l -1.131,-2.372 -1.008,-2.097 -1.027,-1.548 0.438,-0.667 0.802,0.442 0.383,0.703 0.539,0.157 0.084,1.239 0.776,1.128 0.584,-0.801 1.24,3.066 0.978,-0.556 c -0.461,-1.126 -0.916,-2.668 -0.923,-4.324 -0.575,-0.581 -1.309,-1.194 -1.309,-1.194 l -0.346,-1.522 -0.586,0.936 -0.109,-0.69 -0.955,-0.038 0.166,-3.963 0.709,-0.518 1.474,-2.543 L -6,-21.044 Z"
       style="fill:#9a7fc7;fill-opacity:1;fill-rule:nonzero;stroke:none"
       transform="matrix(1.4542905,-0.839635,-0.839635,-1.4542905,38.547529,49.452779)"
       id="path10" />
    <path
       d="M 0,0 -0.166,0.475 -0.305,0.723 -0.252,0.711 -0.398,1.13 c 0,0 6.113,-0.732 6.71,0.134 L 6.562,0.701 Q 6.609,0.719 6.654,0.739 L 6.742,0.318 6.734,0.316 6.844,0.066 C 6.844,0.066 2.525,-0.598 0,0 Z m -0.199,2.924 c 0,0 -0.008,0.204 0.006,0.472 L -0.279,3.395 c -0.133,0.039 0.023,0.394 0.16,0.654 0.064,0.331 0.18,0.634 0.385,0.735 0,0 4.984,-1.328 5.316,-1.063 L 5.652,3.479 C 6.037,3.214 5.934,2.817 5.934,2.817 L 5.84,2.843 5.914,2.592 Z m -5.391,-23.953 0.377,0.839 c 0,0 0.617,1.533 -0.576,3.81 l 0.289,2.889 1.025,0.515 0.004,-0.049 c 0,0 1.229,-6.592 6.227,-7.542 l 0.435,-0.297 0.383,0.419 c 0.014,-0.003 0.028,0 0.043,0 0.028,0.021 0.063,0.038 0.092,0.056 0.09,0.237 0.637,2.054 0.674,8.964 l 0.041,0.002 c 0.133,-3.006 0.334,-6.204 0.638,-8.822 q 0.02,0.009 0.042,0.01 l 0.183,-0.331 c 0,0 0.195,0.016 0.522,0.089 a 1,1 0 0 1 0.556,0.16 c 1.719,0.566 4.957,2.404 5.631,8.263 v 0.016 l 1.104,-0.025 0.207,-1.637 0.562,-0.384 0.225,-2.044 0.279,-0.124 1,-1.055 1.391,-0.488 c 0,0 -2.102,4.43 -1.575,4.863 0,0 -0.738,3.502 -3.136,3.91 -0.063,1.156 -0.252,2.321 -0.731,2.847 l -0.021,0.059 1.133,0.05 0.498,1.251 0.732,-1.202 1.084,0.321 -0.152,-2.874 c 0.004,0.037 0.047,0.184 0.57,-0.533 l 0.58,-0.793 1.002,-1.054 -0.09,-1.1 0.399,0.291 0.849,-0.649 -0.195,1.364 c 0,0 -0.676,-0.169 -0.561,0.247 0.123,0.416 -1.625,6.092 -1.625,6.092 l -1.24,0.22 0.529,0.434 -1.277,1.041 -0.387,-0.566 -2.732,-0.115 -0.895,1.741 1.457,1.158 0.079,1.373 1.388,-0.487 0.241,0.829 0.333,1.796 -0.552,0.113 0.068,1.644 -0.842,3.66 L 10.338,6.891 10.254,5.653 9.709,5.629 10.016,4.821 c 0,0 0.08,-1.912 -0.578,-2.486 L 9.328,1.644 7.217,0.147 7.107,0.324 7.281,1.557 7.537,1.979 7.238,2.513 6.543,2.759 6.1,3.56 l 1.218,0.327 -0.57,0.524 0.647,0.847 4.222,7.027 c 0,0 -3.242,2.189 -3.838,6.54 0,0 -2.584,-3.665 -3.845,-2.9 L 5.23,14.339 4.623,12.534 6.787,13.173 7.221,12.646 5.656,10.799 6.34,10.828 7.012,11.131 7.57,10.881 5.895,8.346 5.717,9.295 4.791,8.571 4.746,9.664 4.449,10.198 4.049,9.908 4.092,8.951 3.641,9.891 2.566,9.434 2.395,10.25 1.586,9.938 1.186,9.65 -0.26,11.505 1.699,10.494 0.531,12.223 1.332,12.669 2.311,12.161 1.42,13.903 2.914,14.104 4.395,14.714 1.424,17.051 1.227,18.413 0.471,16.876 -3.506,13.83 c 0,0 -1.396,0.628 -1.234,0.085 l 0.158,-0.54 -0.107,-0.687 0.945,0.314 L -1.789,8.84 -1.045,7.363 0.096,6.319 -0.996,6.271 -0.691,5.6 -0.387,4.793 -0.619,3.824 -0.602,3.415 -0.43,2.601 -1.258,2.7 -1.086,1.89 -0.492,0.445 A 2.5,2.5 0 0 1 -1.127,0.196 l -0.031,-0.076 -0.99,1.039 -0.53,-0.434 -0.707,0.518 0.569,2.763 -0.555,0.113 0.09,1.095 1.246,-0.216 -0.209,1.633 -0.069,1.64 -0.781,-0.991 c 0,0 -1.91,-3.368 -1.482,-3.76 0.428,-0.392 -1.131,-2.376 -0.567,-2.766 0.565,-0.385 1.52,-0.342 1.52,-0.342 l -0.385,-0.566 0.455,-1.075 1.026,-1.599 0.144,-0.866 -0.459,-0.401 -0.037,-0.053 -1.021,1.401 c 0,0 -0.37,-0.974 -0.774,-1.129 -0.402,-0.154 -1.748,-0.76 -1.748,-0.76 l -1.131,-2.372 -1.008,-2.097 -1.027,-1.548 0.438,-0.667 0.802,0.442 0.383,0.703 0.539,0.157 0.084,1.239 0.776,1.128 0.584,-0.801 1.24,3.066 0.978,-0.556 c -0.461,-1.126 -0.916,-2.668 -0.923,-4.324 -0.575,-0.581 -1.309,-1.194 -1.309,-1.194 l -0.346,-1.522 -0.586,0.936 -0.109,-0.69 -0.955,-0.038 0.166,-3.963 0.709,-0.518 1.474,-2.543 L -6,-21.044 Z"
       style="fill:none;stroke:#ad8fcd;stroke-width:0.275;stroke-linecap:butt;stroke-linejoin:miter;stroke-miterlimit:4;stroke-dasharray:none;stroke-opacity:1"
       transform="matrix(1.4542905,-0.839635,-0.839635,-1.4542905,38.547529,49.452779)"
       id="path11" />
  </g>
  <path
     id="Grasshopper"
     d="m 43.422249,37.593262 c -0.298842,1.789708 -3.448769,2.594193 -3.448769,2.594193 -0.989449,-0.390512 -0.980668,-3.189758 -0.980668,-3.189758 2.851143,-0.405114 3.250778,-4.35107 3.250778,-4.35107 1.243629,0.639328 1.178659,4.946635 1.178659,4.946635 m 15.938156,27.370599 a 1.4105868,1.4105868 0 0 1 0.04194,0.811519 c 0,0 -3.032684,5.289694 -9.739605,5.105436 0,0 -1.495634,-1.428458 -1.424094,-2.342336 0,0 1.752089,0.223609 4.133643,-0.672436 L 39.032341,40.589271 c 0,0 -2.361433,2.234009 -4.038823,1.525169 0,0 -3.669905,-2.255685 -3.544866,-3.644493 0,0 3.544044,1.77572 5.41491,-0.42132 0,0 2.368281,1.502472 2.168779,2.540644 1.324354,0.10408 16.279326,25.684431 16.281845,25.688794 a 15.11343,15.11343 0 0 0 3.009515,-2.868013 c 0,0 0.77311,0.734529 1.036704,1.553809 m 0.619286,6.745209 -5.188996,3.069553 c -0.898588,-0.192833 -1.817211,-0.581577 -2.560456,-1.344983 0,0 1.560057,-2.486845 3.605647,-2.913575 0,0 3.647147,-2.247233 4.244533,-1.168868 0,0 0.08853,1.123955 -0.100728,2.357873 M 30.021868,34.541079 c 0,0 1.844913,-2.880116 2.758105,-2.682141 0.918168,0.193163 1.672991,3.042123 1.918173,3.842947 0.23914,0.800435 -2.347486,1.764462 -3.125131,1.368008 -0.777195,-0.388957 -1.551147,-2.528814 -1.551147,-2.528814 m 2.692205,-6.863475 c 2.648257,0.200664 3.632294,-0.06304 2.806102,1.501773 -0.84012,1.570914 -0.605801,1.990199 -2.901292,2.427415 -2.302597,0.431623 0.09519,-3.929188 0.09519,-3.929188 m 5.59569,7.854899 -1.974328,1.087524 c -1.080229,0.365776 -1.964467,-4.977712 -1.964467,-4.977712 0.885129,-0.257014 3.938795,3.890188 3.938795,3.890188 m 0.651001,-6.714624 c 0.714077,-0.173769 1.965541,2.739425 1.708566,3.547068 -0.261172,0.800371 -2.154085,1.414298 -2.154085,1.414298 0,0 -2.946785,-2.316393 -2.889639,-3.282071 0.06145,-0.981735 2.617948,-1.507595 3.335158,-1.679295 M 59.413517,34.65099 C 58.83006,34.26846 57.888224,35.636328 57.160835,34.59812 56.43619,33.568021 55.274539,32.815435 55.274539,32.815435 l -5.581775,-3.887872 -0.290997,-1.31343 -1.109814,0.223855 -0.606385,1.391368 c 0,0 -2.9494,2.616132 -3.438382,3.757446 l -0.430356,0.601375 a 6.7170801,6.7170801 0 0 0 -1.922637,-1.711289 c -0.260862,-0.673489 -0.632985,-1.30795 -0.991621,-1.579837 1.159822,0.107937 5.036222,-1.641462 5.036222,-1.641462 l 1.567506,-0.01885 0.626232,-0.910308 -1.156224,-0.749902 -1.673069,-6.427666 c 0,0 -0.288703,-1.312816 -1.013573,-2.346663 -0.723805,-1.028646 0.939993,-1.360986 0.7969,-2.015212 -0.147065,-0.65775 -2.729996,-0.735189 -2.033759,-0.190903 0.704573,0.54529 0.729233,1.031329 0.0021,2.253895 -0.721909,1.221502 0.219979,2.110664 0.800917,2.488831 0.576965,0.374644 2.927264,6.866988 2.008356,6.460957 -0.757598,-0.338222 -5.288082,0.60405 -6.902642,0.954501 a 1.67927,1.67927 0 0 0 -0.459657,-0.225197 c -0.09708,-0.238685 -0.198922,-0.468808 -0.321179,-0.700715 -0.371239,-0.669874 -0.853499,-1.246564 -1.406267,-1.706923 -0.879338,-0.87486 -1.873818,-1.599863 -2.096348,-1.196039 l 0.0065,0.09516 a 5.3736641,5.3736641 0 0 0 -1.75885,-0.198376 c -0.650144,-1.606352 -2.035634,-6.739944 7.657184,-5.09179 0,0 1.348365,-0.210336 0.07397,-0.83578 0,0 -6.798713,-1.71353 -8.645023,1.694815 0,0 -1.045336,1.887178 -0.200878,4.424555 a 4.9538466,4.9538466 0 0 0 -2.216712,1.336052 C 29.096917,25.009484 24.538276,18.739219 19.313285,29.76998 l -0.04678,0.160799 c 0,0 0.769921,0.907007 1.247795,-0.156149 0,0 3.515558,-9.252685 8.484683,-3.275646 a 5.5415911,5.5415911 0 0 0 -0.71205,1.611377 c -0.09775,-0.06184 -0.158522,-0.09657 -0.158522,-0.09657 -0.219144,0.322367 -0.170251,1.011589 -0.0039,1.790061 a 5.8774451,5.8774451 0 0 0 0.732686,2.55537 c 0.03823,0.07294 0.07389,0.127978 0.112511,0.194875 0.176822,0.464116 0.302964,0.773281 0.302964,0.773281 0,0 0.04994,-0.05792 0.121124,-0.163005 q 0.101865,0.14285 0.226384,0.274559 a 6.7170801,6.7170801 0 0 0 -0.05773,0.554933 1.343416,1.343416 0 0 0 -0.314814,0.307796 l -0.01769,-0.04408 c 0,0 -4.347357,5.021022 -4.39795,6.008125 -0.05143,0.985648 -4.877308,-4.02119 -4.949469,-4.696977 -0.07882,-0.673884 -0.460865,-1.899843 -1.90024,-1.82699 -1.437921,0.07201 -1.869947,-0.169136 -2.049581,-1.031073 -0.174208,-0.859253 -1.289626,1.427112 -0.757623,1.854862 0.531777,0.424002 1.595762,-0.876716 2.20306,0.228891 0.607072,1.101858 1.670852,1.953609 1.670852,1.953609 l 5.076422,4.392933 0.151369,1.343629 1.107326,-0.127405 0.739823,-1.36176 c 0,0 3.306577,-2.53149 3.779413,-3.603372 0.09625,-0.08854 0.196582,-0.196876 0.293554,-0.311035 a 6.7170801,6.7170801 0 0 0 0.260467,0.491446 c 0.01679,0.02909 0.04528,0.06499 0.06084,0.09867 0.09248,0.187049 0.190223,0.386572 0.300216,0.577084 a 6.6499093,6.6499093 0 0 0 0.828489,3.161276 c 0.0026,0.0179 0.01769,0.04408 0.03029,0.06589 0.0092,0.016 0.0314,0.03423 0.04315,0.05459 -0.353353,-0.02092 -0.699538,-0.02271 -0.923877,-0.02505 -0.07189,-0.007 -0.138744,-0.0052 -0.217682,-0.0042 l -0.0885,0.0046 0.0025,0.0044 c -1.47942,0.107608 -4.645231,1.274172 -4.645231,1.274172 l -1.538512,-0.112291 -0.709938,0.869439 1.060871,0.85343 0.989158,6.640251 c 0,0 0.14975,1.354259 0.759116,2.456732 0.602095,1.106671 -1.06253,1.299877 -0.992438,1.978798 0.0782,0.676178 2.610403,0.961299 1.97658,0.353832 -0.6303,-0.61144 -0.609981,-1.100179 0.228754,-2.280543 0.832693,-1.180754 0.0012,-2.160804 -0.529728,-2.583352 -0.534071,-0.424616 -2.177597,-7.187344 -1.319138,-6.697936 0.823764,0.462902 6.863823,-0.410483 7.384809,-0.492161 l 0.969393,1.873833 c 0.471704,1.854804 1.270684,4.236166 2.566769,7.253514 -2.178037,-0.877409 -5.425792,-0.712562 -5.425792,-0.712562 l -2.440971,-1.73585 -0.257255,1.680378 2.399567,3.289669 7.687,18.818922 c 0,0 1.49242,3.79402 3.438577,7.326074 1.948902,3.540165 -0.390356,2.521212 0.358956,4.413522 0.742042,1.896508 4.83763,5.027198 3.309459,2.793428 -1.53069,-2.238132 -1.945993,-3.541844 -1.782505,-5.932073 0.162422,-2.395432 -2.01005,-5.812336 -3.213162,-7.456218 -1.204791,-1.646791 -9.991736,-21.393537 -8.242902,-19.28135 1.092681,1.308194 4.995297,3.154178 7.795486,4.356873 a 132.66233,132.66233 0 0 0 1.53934,2.871087 c 0,0 3.073459,8.124409 6.981325,7.500885 1.860742,2.171676 3.666465,3.915562 5.310672,5.124446 l -0.0051,0.0146 a 5.2057371,5.2057371 0 0 0 2.693102,1.524354 c 1.189921,0.45898 2.21635,0.500442 3.0269,0.0538 0.320739,-0.146398 0.574428,-0.382062 0.774337,-0.673933 1.530354,-1.953908 1.218035,-6.605713 -0.62633,-12.490438 2.480173,-3.025831 -2.931829,-9.763239 -2.931829,-9.763239 -0.605706,-1.028963 -1.201995,-2.001312 -1.769512,-2.920468 0.499074,-2.991182 1.179908,-7.91777 0.610272,-9.686947 -0.8423,-2.614245 11.127443,15.384108 11.874462,17.275803 0.748084,1.896898 2.471121,5.55971 4.580991,6.705282 2.110484,1.143279 2.988762,2.201022 4.060226,4.684899 1.06749,2.480353 0.61784,-2.65449 -0.585661,-4.29233 -1.199364,-1.644107 -1.593694,0.873582 -3.538007,-2.665353 -1.947612,-3.531215 -4.348859,-6.823792 -4.348859,-6.823792 L 56.183866,40.331689 54.69458,36.539738 53.128978,35.86331 l 0.171587,2.984029 c 0,0 -2.758781,3.886684 -2.355477,6.33167 a 65.491531,65.491531 0 0 0 -2.149399,-2.819423 l -3.57979,-5.780559 -0.111261,0.03903 c 0.0012,-0.01813 -0.0089,-0.03558 -0.0077,-0.0537 0.100912,-0.211447 0.217026,-0.470452 0.351804,-0.794526 0.829515,-1.145956 3.657757,-5.103767 3.610945,-5.933802 -0.0416,-0.96878 5.351567,3.549592 5.490071,4.202589 0.145611,0.658589 0.655306,1.830241 2.110422,1.643591 1.447393,-0.189948 1.903632,0.01589 2.16913,0.841831 0.265498,0.825937 1.165347,-1.504668 0.584244,-1.873045"
     style="display:none;fill:#42b23c;fill-opacity:1;fill-rule:nonzero;stroke:#3b913f;stroke-width:0.461799;stroke-linecap:butt;stroke-linejoin:miter;stroke-miterlimit:4;stroke-dasharray:none;stroke-opacity:1" />
  <g
     id="Ladybug"
     style="display:none">
    <path
       d="M 0,0 -0.112,-0.41 0.026,-0.961 -0.343,-1.1 -0.461,-1.721 -0.484,-2.013 -0.918,-2.328 -1.304,-2.541 -1.438,-2.896 -1.81,-2.687 -2.064,-2.76 l -0.24,0.004 -0.286,0.118 -0.251,0.486 0.159,0.298 -0.321,0.656 0.135,0.351 -0.042,0.327 0.165,0.508 -0.119,0.282 0.65,0.712 0.222,0.265 0.085,-0.093 0.506,0.147 0.14,0.008 c 0,0 0.215,0.05 0.345,0.194 l 0.352,-0.497 0.178,-0.318 z m -4.781,-7.606 -0.1,-0.66 -0.446,0.073 -0.396,-0.585 -0.149,-0.295 -0.594,-0.072 h -0.496 l -0.298,-0.294 -0.296,0.44 -0.297,0.073 -0.247,0.148 -0.25,0.292 -0.047,0.662 0.297,0.218 -0.049,0.879 0.296,0.294 0.099,0.369 0.396,0.439 v 0.367 l 0.993,0.366 0.344,0.146 0.051,-0.146 0.594,-0.147 0.148,-0.073 c 0,0 0.249,-0.074 0.447,0 l 0.146,-0.734 0.051,-0.44 0.098,-0.952 z M 0.073,4.406 0.958,2.891 1.819,3.58 c 0.899,-0.184 1.593,1.256 1.593,1.256 1.12,0.23 1.669,1.98 1.669,1.98 C 5.718,8.506 4.178,7.711 4.178,7.711 5.081,6.816 4.4,6.357 4.4,6.357 3.757,6.793 3.211,5.396 3.211,5.396 2.566,5.83 1.781,4.101 1.781,4.101 L 1.633,4.413 C 1.483,4.723 0.309,5.449 0.309,5.449 L -0.667,5.967 -1.291,5.611 c -0.814,1.034 -1.511,1.518 -1.511,1.518 -0.034,0.017 -0.118,0.014 -0.236,0 L -3.047,7.16 -4.931,6.944 C -5.52,6.119 -7.262,5.492 -7.764,5.322 Q -7.896,5.301 -8.011,5.287 c -2.515,0.232 -0.732,-0.764 -0.732,-0.764 0.268,-0.105 0.474,-0.282 0.632,-0.486 0.104,-0.21 0.214,-0.415 0.323,-0.607 0.169,-0.471 0.184,-0.897 0.184,-0.897 0.197,-2.045 -3.07,-3.419 -3.07,-3.419 l 0.048,-15.794 q 0.24,0.031 0.471,0.065 l 0.013,-1.67 c 3.369,-1.39 5.889,1.267 7.083,2.961 h -0.354 l -0.221,-0.24 -0.221,0.359 -0.222,0.06 -0.186,0.12 -0.184,0.241 -0.039,0.539 0.223,0.179 -0.038,0.718 0.224,0.241 0.073,0.3 0.296,0.361 v 0.298 l 0.74,0.3 0.26,0.119 0.036,-0.119 0.443,-0.12 0.111,-0.059 c 0,0 0.185,-0.061 0.334,0 l 0.111,-0.6 0.024,-0.227 q 0.295,0.595 0.557,1.17 l 0.835,0.118 -0.145,-0.596 -0.802,-1.578 0.931,-0.564 c 0.255,-0.996 1.703,-1.055 1.703,-1.055 0.685,-1.033 2.307,-0.804 2.307,-0.804 1.617,0.109 0.303,1.313 0.303,1.313 -0.303,-1.313 -0.968,-0.832 -0.968,-0.832 0.057,0.849 -1.291,0.78 -1.291,0.78 0.054,0.846 -1.661,0.869 -1.661,0.869 l 0.18,0.29 c 0.18,0.29 0.226,1.805 0.226,1.805 l -0.029,1.221 -0.87,0.735 C 2.389,-2.877 1.091,1.77 -0.464,4.402 l 0.129,0.421 z"
       style="fill:#d52646;fill-opacity:1;fill-rule:nonzero;stroke:none"
       transform="matrix(1.4542905,-0.839635,-0.839635,-1.4542905,61.568774,41.850685)"
       id="path12" />
    <path
       d="m 0,0 0.181,0.317 0.35,0.497 C 0.659,0.671 0.876,0.62 0.876,0.62 L 1.014,0.612 1.522,0.466 1.607,0.559 1.828,0.294 2.478,-0.419 2.359,-0.7 2.525,-1.208 2.481,-1.535 2.617,-1.887 2.295,-2.542 2.455,-2.841 2.203,-3.326 1.917,-3.444 1.679,-3.448 l -0.255,0.073 -0.372,-0.21 -0.135,0.356 -0.385,0.212 -0.434,0.316 -0.024,0.292 -0.116,0.621 -0.369,0.139 0.137,0.55 -0.113,0.411 z m 4.1,-7.927 0.097,0.952 0.051,0.441 0.147,0.733 c 0.199,-0.073 0.447,0 0.447,0 L 4.99,-5.728 5.583,-5.58 5.634,-5.435 5.979,-5.58 6.972,-5.946 V -6.313 L 7.368,-6.753 7.466,-7.121 7.764,-7.415 7.715,-8.295 8.011,-8.513 7.963,-9.175 7.715,-9.467 7.466,-9.614 7.17,-9.688 6.872,-10.128 6.575,-9.833 H 6.079 L 5.487,-9.762 5.338,-9.467 4.939,-8.882 4.496,-8.954 4.395,-8.295 Z M -0.052,4.135 0.078,3.714 C -1.476,1.081 -2.776,-3.565 -0.014,-10.671 l -0.869,-0.734 -0.029,-1.221 c 0,0 0.045,-1.516 0.226,-1.806 l 0.179,-0.29 c 0,0 -1.715,-0.022 -1.661,-0.869 0,0 -1.345,0.07 -1.291,-0.779 0,0 -0.665,-0.482 -0.966,0.832 0,0 -1.316,-1.204 0.301,-1.314 0,0 1.624,-0.228 2.309,0.804 0,0 1.447,0.06 1.702,1.056 l 0.931,0.563 -0.802,1.578 -0.146,0.596 0.837,-0.117 q 0.259,-0.576 0.557,-1.17 l 0.023,0.227 0.111,0.599 c 0.149,-0.06 0.332,0 0.332,0 l 0.112,0.06 0.446,0.12 0.036,0.119 0.258,-0.119 0.74,-0.301 v -0.298 l 0.296,-0.36 0.073,-0.301 0.223,-0.24 -0.037,-0.719 0.223,-0.179 -0.038,-0.539 -0.185,-0.241 -0.186,-0.119 -0.221,-0.061 -0.221,-0.359 -0.223,0.24 H 2.671 c 1.196,-1.693 3.717,-4.35 7.083,-2.961 l 0.015,1.67 c 0.155,-0.021 0.309,-0.045 0.471,-0.064 l 0.047,15.794 c 0,0 -3.266,1.374 -3.069,3.419 0,0 0.016,0.426 0.183,0.896 q 0.166,0.291 0.325,0.608 c 0.159,0.204 0.362,0.38 0.631,0.486 0,0 1.783,0.995 -0.733,0.764 A 4,4 0 0 0 7.376,4.634 c -0.5,0.17 -2.241,0.797 -2.83,1.622 L 2.663,6.472 2.65,6.44 c -0.117,0.014 -0.2,0.017 -0.235,0 0,0 -0.694,-0.484 -1.511,-1.517 L 0.28,5.278 -0.694,4.761 c 0,0 -1.175,-0.727 -1.326,-1.036 L -2.166,3.412 c 0,0 -0.787,1.73 -1.431,1.296 0,0 -0.548,1.396 -1.189,0.961 0,0 -0.681,0.459 0.223,1.353 0,0 -1.541,0.795 -0.904,-0.894 0,0 0.549,-1.75 1.668,-1.981 0,0 0.695,-1.439 1.593,-1.255 l 0.862,-0.69 0.884,1.516 z"
       style="fill:#d52646;fill-opacity:1;fill-rule:nonzero;stroke:none"
       transform="matrix(1.4542905,-0.839635,-0.839635,-1.4542905,28.79895,59.435232)"
       id="path13" />
    <path
       d="m 0,0 c -0.262,0.416 -2.088,-0.027 -2.088,-0.027 l -1.045,0.594 c -0.029,0.606 -0.621,1.274 -0.621,1.274 l -0.515,0.558 c 0.43,-0.175 1.565,0.219 1.565,0.219 0.451,0.712 1.076,0.598 1.076,0.598 C -0.772,2.927 -0.371,1.769 -0.371,1.769 0.758,0.579 0,0 0,0 m -5.027,5.013 c 0,0 -0.893,0.468 -0.367,0.978 0,0 0.122,0.3 1.098,-0.168 0,0 0.121,-0.896 -0.731,-0.81 m -3.166,0 c -0.853,-0.086 -0.733,0.81 -0.733,0.81 0.975,0.468 1.097,0.168 1.097,0.168 C -7.3,5.481 -8.193,5.013 -8.193,5.013 M -9.366,1.841 c 0,0 -0.59,-0.668 -0.62,-1.274 l -1.045,-0.594 c 0,0 -1.824,0.443 -2.088,0.027 0,0 -0.757,0.579 0.373,1.769 0,0 0.398,1.158 1.254,1.447 0,0 0.627,0.114 1.077,-0.598 0,0 1.133,-0.394 1.566,-0.219 z M 8.378,5.269 8.621,6.12 7.566,5.269 6.913,6.12 6.184,5.694 C 5.126,6.206 3.586,4.501 3.586,4.501 L 2.608,-0.614 1.96,-0.786 1.878,-0.356 1.114,-0.68 c -0.22,2.269 -2.347,4.14 -2.347,4.14 -0.551,0.537 -1.488,-0.189 -1.488,-0.189 0.258,1.488 -0.067,2.203 -0.467,2.544 0.881,0.877 2.466,2.693 2.466,2.693 0.731,0.597 0.409,1.364 0.409,1.364 C -0.804,10.81 -1.048,9.614 -1.048,9.614 L -1.127,8.592 C -2.266,6.802 -3.889,6.291 -3.889,6.291 A 0.8,0.8 0 0 1 -4.032,6.132 c -0.04,0.001 -0.063,-0.003 -0.063,-0.003 0,0 -0.717,0.447 -1.399,0.776 -0.435,0.211 -0.858,0.373 -1.069,0.344 l -0.01,-0.002 -0.009,0.002 c -0.213,0.029 -0.634,-0.133 -1.069,-0.344 -0.681,-0.329 -1.4,-0.776 -1.4,-0.776 0,0 -0.091,0.009 -0.226,-0.009 a 1,1 0 0 1 -0.151,0.171 c 0,0 -1.624,0.511 -2.763,2.301 l -0.08,1.022 c 0,0 -0.246,1.196 -0.731,0.258 0,0 -0.325,-0.767 0.404,-1.364 0,0 1.693,-1.938 2.551,-2.775 -0.357,-0.373 -0.615,-1.087 -0.378,-2.462 0,0 -0.934,0.726 -1.486,0.189 0,0 -2.184,-1.92 -2.358,-4.229 l -0.062,0.069 -0.814,0.344 -0.081,-0.43 -0.65,0.172 -0.976,5.115 c 0,0 -1.543,1.705 -2.598,1.193 l -0.732,0.426 -0.651,-0.851 -1.055,0.851 0.244,-0.851 h -0.488 c 0,0 1.382,-1.622 2.762,-0.768 l 1.869,-0.17 -0.486,-0.769 c 0,0 0.81,-4.176 1.299,-4.348 0,0 1.624,-2.046 3.493,-2.556 l 0.056,-0.016 c 0.993,-0.765 2.475,-1.206 3.713,-1.515 0.979,-0.244 1.808,-0.405 2.124,-0.579 0,0 0.916,-0.326 -1.95,-1.955 0,0 -0.049,-0.121 -0.094,-0.321 a 3.2,3.2 0 0 1 -0.029,-1.347 c 0.063,-1.576 2.063,-2.108 2.063,-2.108 a 0.3,0.3 0 0 0 0.039,0.096 c 0.147,0.088 0.496,0.278 0.7,0.293 0.207,-0.015 0.552,-0.205 0.701,-0.293 a 0.3,0.3 0 0 0 0.038,-0.096 c 0,0 2,0.532 2.065,2.108 0.111,0.537 0.04,1.038 -0.031,1.347 -0.047,0.2 -0.093,0.321 -0.093,0.321 -2.867,1.629 -1.949,1.955 -1.949,1.955 0.316,0.174 1.145,0.335 2.122,0.579 1.269,0.317 2.79,0.77 3.782,1.57 1.81,0.569 3.361,2.517 3.361,2.517 0.486,0.172 1.299,4.348 1.299,4.348 L 4.235,4.331 6.104,4.501 C 7.483,3.647 8.865,5.269 8.865,5.269 Z"
       style="fill:#d52646;fill-opacity:1;fill-rule:nonzero;stroke:none"
       transform="matrix(1.4542905,-0.839635,-0.839635,-1.4542905,45.656356,29.702599)"
       id="path14" />
  </g>
  <g
     id="Mosquito"
     style="display:inline">
    <path
       d="m 0,0 -0.01,-0.021 -0.004,-0.02 c -0.007,-0.049 -0.682,-4.308 -1.494,-6.002 -0.237,0.979 -0.867,3.158 -1.995,4.436 -1.512,1.714 -3.343,5.613 -3.937,11.404 l -0.002,0.021 -0.624,2.039 c 0.059,0.112 0.537,0.998 0.715,1.331 0.307,-0.329 1.882,-2.022 1.95,-2.091 0.019,-0.103 0.447,-2.159 0.447,-2.159 L -4.92,8.9 C -3.438,7.186 0.088,2.624 0.085,0.498 Q 0.085,0.218 0,0 m -10.819,-4.143 c -0.175,-0.311 -1.505,-2.717 -1.875,-4.155 -0.566,1.237 -1.709,4.069 -1.704,6.743 0,0.955 0.146,1.889 0.521,2.723 l 0.006,0.014 0.004,0.013 c 0.599,2.038 2.346,8.162 2.349,10.268 a 1.8,1.8 0 0 1 -0.057,0.473 c 0.083,0.123 0.62,0.881 0.84,1.192 0.249,-0.321 1.006,-1.284 1.077,-1.377 V 11.034 C -9.661,8.158 -9.756,-1.725 -10.819,-4.143 m -1.569,18.696 c 0,0 0.242,0.967 2.174,1.445 0,0 3.503,0.963 4.224,0.115 0,0 0.924,-0.492 1.053,-1.258 a 0.9,0.9 0 0 1 0.009,-0.299 c -0.024,-0.229 -0.126,-0.476 -0.338,-0.736 0,0 -2.294,0.485 -3.865,-0.117 0,0 -1.567,0.608 -2.776,-0.115 0,0 -0.965,-0.482 -0.481,0.965 M -8.295,6.969 C -8.715,6.975 -9.036,6.932 -9.286,6.857 q 0.012,0.441 0.018,0.858 c 0.831,-0.344 1.359,-0.135 1.681,0.184 0.068,-0.43 0.14,-0.854 0.222,-1.256 -0.381,0.331 -0.93,0.326 -0.93,0.326 M -7.472,3.248 C -7.979,3.77 -8.998,3.203 -9.434,2.92 q 0.04,0.73 0.068,1.457 c 0.331,-0.18 0.635,-0.268 0.635,-0.268 0.907,-0.05 1.339,0.567 1.544,1.082 C -7.073,4.962 -7.032,4.693 -7.032,4.427 -7.034,3.91 -7.185,3.396 -7.277,3.131 A 0.6,0.6 0 0 1 -7.472,3.248 M -4.92,10.7 c 0.169,0.245 0.304,0.527 0.392,0.853 0,0 0.048,0.136 0.111,0.366 q 0.012,-0.009 0.024,-0.014 a 44,44 0 0 0 1.959,-0.909 c 1.111,-0.311 1.02,0.449 1.02,0.449 -0.29,0.236 -1.894,0.909 -2.82,1.287 q 0.042,0.247 0.077,0.519 0.06,0 0.132,0.007 c 0.883,0.095 2.153,0.16 2.153,0.16 1.121,0.271 0.671,0.889 0.671,0.889 -0.346,0.062 -1.902,-0.109 -2.912,-0.229 q 0,0.304 -0.038,0.61 c 0.87,0.513 2.297,1.375 2.542,1.643 0,0 -0.02,0.765 -1.073,0.3 0,0 -0.934,-0.643 -1.678,-1.105 -0.262,0.669 -0.767,1.22 -1.666,1.45 0,0 -0.295,0.045 -0.737,0.086 0.852,1.665 -0.268,2.565 -0.827,2.889 0,0 -0.417,0.259 -1.018,0.343 l -1.127,11.435 0.24,-11.519 -1.32,-0.743 c -0.247,-0.181 -0.397,-0.327 -0.397,-0.327 -0.559,-1.185 -0.082,-2.116 0.317,-2.62 -0.546,-0.198 -1.503,-0.616 -2.066,-1.283 a 1,1 0 0 1 -0.192,0.078 c -0.851,0.267 -2.039,0.716 -2.039,0.716 -1.135,0.199 -0.97,-0.547 -0.97,-0.547 0.297,-0.197 1.839,-0.679 2.81,-0.972 a 1.6,1.6 0 0 1 -0.028,-0.739 c 0,0 -0.029,-0.152 -0.044,-0.396 -0.957,0.344 -2.354,0.827 -2.693,0.846 0,0 -0.579,-0.502 0.452,-1.02 0,0 1.225,-0.348 2.064,-0.64 q 0.101,-0.035 0.192,-0.049 c 0.026,-0.268 0.076,-0.561 0.162,-0.858 -0.933,-0.402 -2.406,-1.053 -2.676,-1.281 0,0 -0.08,-0.765 1.023,-0.434 a 50,50 0 0 0 1.967,0.954 c 0.197,-0.352 0.46,-0.689 0.824,-0.974 -0.37,-2.063 -1.23,-5.437 -2.163,-8.606 -0.396,-0.899 -0.554,-1.891 -0.556,-2.899 -0.005,-3.592 1.964,-7.352 2.071,-7.553 L -12.364,-9 c -0.126,0.68 1.081,3.166 1.923,4.669 0.293,0.671 0.516,1.852 0.685,3.281 0.152,-0.561 0.33,-1.229 0.472,-1.763 -0.064,-0.393 -0.016,-0.828 0.031,-1.113 A 1.5,1.5 0 0 1 -9.609,-4.76 2,2 0 0 1 -9.62,-4.969 c -0.002,-0.996 0.71,-2.162 1.292,-2.954 0.144,-1.231 2.149,-2.913 2.149,-2.913 -0.356,0.57 0.658,1.891 0.658,1.891 0.516,1.158 -0.738,2.041 -0.738,2.041 -1.321,0.685 -1.733,-0.176 -1.733,-0.176 a 0.9,0.9 0 0 1 -0.229,-0.262 c -0.487,0.713 -0.98,1.615 -0.98,2.363 q 0,0.092 0.012,0.172 0.027,0.245 0.137,0.439 c 0.331,-0.278 1.218,-0.993 1.775,-1.112 0.478,-0.102 0.928,0.343 1.159,0.626 l 0.803,-1.226 c 0.281,0.57 -0.23,1.104 -0.657,1.426 l 0.015,0.021 c 0,0 0.155,1.252 -0.001,1.865 -0.16,0.617 -0.938,0.795 -0.938,0.795 l -1.752,0.051 a 0.83,0.83 0 0 1 -0.369,-0.257 c -0.149,0.56 -0.303,1.14 -0.417,1.559 1.238,-0.804 2.647,0.391 2.647,0.391 0.226,1.633 0.042,2.504 -0.192,2.967 l 0.006,0.004 0.015,0.035 c 0.015,0.037 0.205,0.493 0.296,1.065 0.83,-2.696 1.907,-4.626 2.865,-5.712 1.382,-1.564 2.011,-4.72 2.018,-4.751 l 0.085,-0.44 0.266,0.362 c 0.966,1.314 1.77,6.372 1.803,6.594 Q 0.47,0.156 0.474,0.477 C 0.475,3.165 -4.173,8.635 -4.59,9.119 -4.602,9.18 -4.788,10.08 -4.92,10.7"
       style="fill:#9da2a9;fill-opacity:1;fill-rule:nonzero;stroke:none"
       transform="matrix(1.4542905,-0.839635,-0.839635,-1.4542905,67.857878,59.871031)"
       id="path15" />
    <path
       d="m 0,0 a 45,45 0 0 0 -0.856,1.983 c -0.622,0.971 -1.06,0.342 -1.06,0.342 0.083,-0.521 1.563,-3.475 1.563,-3.475 0,0 0.734,0.346 0.353,1.15"
       style="fill:#9da2a9;fill-opacity:1;fill-rule:nonzero;stroke:none"
       transform="matrix(1.4542905,-0.839635,-0.839635,-1.4542905,69.308972,52.964105)"
       id="path16" />
    <path
       d="m 0,0 c 0.104,-0.514 1.453,-3.808 1.788,-4.073 0.334,-0.261 1.233,-0.682 0.358,1.014 -0.872,1.697 -1.359,2.872 -1.359,2.872 0,0 -0.891,0.699 -0.787,0.187"
       style="fill:#9da2a9;fill-opacity:1;fill-rule:nonzero;stroke:none"
       transform="matrix(1.4542905,-0.839635,-0.839635,-1.4542905,56.923909,45.664539)"
       id="path17" />
    <path
       d="m 0,0 c 0,0 0.713,0.391 0.288,1.172 -0.424,0.779 -0.97,1.932 -0.97,1.932 -0.674,0.933 -1.075,0.28 -1.075,0.28 C -1.642,2.865 0,0 0,0"
       style="fill:#9da2a9;fill-opacity:1;fill-rule:nonzero;stroke:none"
       transform="matrix(1.4542905,-0.839635,-0.839635,-1.4542905,69.764735,45.41226)"
       id="path18" />
    <path
       d="m 0,0 c -1.587,1.055 -2.584,1.842 -2.584,1.842 0,0 -1.122,0.178 -0.78,-0.219 0.34,-0.398 3.125,-2.615 3.545,-2.682 C 0.602,-1.127 1.589,-1.055 0,0"
       style="fill:#9da2a9;fill-opacity:1;fill-rule:nonzero;stroke:none"
       transform="matrix(1.4542905,-0.839635,-0.839635,-1.4542905,61.604314,40.340999)"
       id="path19" />
    <path
       d="m 0,0 c -0.233,-0.861 -0.636,-2.066 -0.636,-2.066 -0.157,-1.141 0.581,-0.95 0.581,-0.95 0.277,0.452 1.072,3.659 1.072,3.659 C 1.017,0.643 0.233,0.855 0,0"
       style="fill:#9da2a9;fill-opacity:1;fill-rule:nonzero;stroke:none"
       transform="matrix(1.4542905,-0.839635,-0.839635,-1.4542905,20.141595,40.992953)"
       id="path20" />
    <path
       d="m 0,0 c -0.356,0.229 -1.291,0.559 -0.259,-1.045 1.033,-1.601 1.632,-2.724 1.632,-2.724 0,0 0.956,-0.61 0.803,-0.11 C 2.023,-3.379 0.36,-0.23 0,0"
       style="fill:#9da2a9;fill-opacity:1;fill-rule:nonzero;stroke:none"
       transform="matrix(1.4542905,-0.839635,-0.839635,-1.4542905,24.078934,45.9341)"
       id="path21" />
    <path
       d="m 0,0 c 0,0 -0.386,1.213 -0.604,2.074 -0.218,0.861 -1.004,0.66 -1.004,0.66 0,0 0.742,-3.216 1.008,-3.674 0,0 0.74,-0.206 0.6,0.94"
       style="fill:#9da2a9;fill-opacity:1;fill-rule:nonzero;stroke:none"
       transform="matrix(1.4542905,-0.839635,-0.839635,-1.4542905,51.139778,25.511968)"
       id="path22" />
    <path
       d="M 0,0 C 0,0 0.558,1.141 1.535,2.779 2.512,4.417 1.587,4.055 1.237,3.813 0.888,3.57 -0.662,0.363 -0.799,-0.141 -0.931,-0.649 0,0 0,0"
       style="fill:#9da2a9;fill-opacity:1;fill-rule:nonzero;stroke:none"
       transform="matrix(1.4542905,-0.839635,-0.839635,-1.4542905,51.773604,35.363623)"
       id="path23" />
    <path
       d="m 0,0 c 0,0 0.011,-1.271 -0.033,-2.162 -0.045,-0.887 0.766,-0.925 0.766,-0.925 0,0 0.237,3.292 0.118,3.808 C 0.851,0.721 0.203,1.134 0,0"
       style="fill:#9da2a9;fill-opacity:1;fill-rule:nonzero;stroke:none"
       transform="matrix(1.4542905,-0.839635,-0.839635,-1.4542905,37.220122,70.53087)"
       id="path24" />
    <path
       d="m 0,0 c 0,0 -0.467,-1.186 -1.311,-2.893 -0.842,-1.709 0.047,-1.277 0.375,-1.006 0.333,0.268 1.625,3.587 1.72,4.1 C 0.879,0.717 0,0 0,0"
       style="fill:#9da2a9;fill-opacity:1;fill-rule:nonzero;stroke:none"
       transform="matrix(1.4542905,-0.839635,-0.839635,-1.4542905,35.755356,60.355615)"
       id="path25" />
    <path
       d="m 0,0 c -0.357,0.236 -0.389,-0.107 -0.389,-0.107 -2.166,-2.895 -4.389,-3.301 -4.389,-3.301 -0.288,0.132 -0.301,-0.123 -0.301,-0.123 0.067,-0.401 0.54,-0.143 0.54,-0.143 2.494,0.188 4.684,3.295 4.684,3.295 C 0.369,0.018 0,0 0,0"
       style="fill:#9da2a9;fill-opacity:1;fill-rule:nonzero;stroke:none"
       transform="matrix(1.4542905,-0.839635,-0.839635,-1.4542905,40.422754,75.366509)"
       id="path26" />
    <path
       d="m 0,0 c 0,0 -1.145,-0.554 -1.968,-0.894 -0.821,-0.339 -0.511,-1.089 -0.511,-1.089 0,0 3.079,1.196 3.492,1.525 0,0 0.1,0.76 -1.013,0.458"
       style="fill:#9da2a9;fill-opacity:1;fill-rule:nonzero;stroke:none"
       transform="matrix(1.4542905,-0.839635,-0.839635,-1.4542905,24.714561,61.921814)"
       id="path27" />
    <path
       d="M 0,0 C -1.785,-0.669 -0.839,-0.961 -0.414,-0.991 0.011,-1.02 3.225,0.514 3.644,0.826 4.066,1.137 2.935,1.215 2.935,1.215 2.935,1.215 1.785,0.672 0,0"
       style="fill:#9da2a9;fill-opacity:1;fill-rule:nonzero;stroke:none"
       transform="matrix(1.4542905,-0.839635,-0.839635,-1.4542905,27.553699,58.398321)"
       id="path28" />
    <path
       d="m 0,0 c -3.611,0.163 -5.198,1.775 -5.198,1.775 -0.053,0.311 -0.27,0.18 -0.27,0.18 -0.293,-0.281 0.183,-0.528 0.183,-0.528 1.558,-1.956 5.36,-2.021 5.36,-2.021 0.454,0.037 0.231,0.333 0.231,0.333 C 0.301,0.167 0,0 0,0"
       style="fill:#9da2a9;fill-opacity:1;fill-rule:nonzero;stroke:none"
       transform="matrix(1.4542905,-0.839635,-0.839635,-1.4542905,21.458276,66.807067)"
       id="path29" />
    <path
       d="m 0,0 c 0,0 -2.264,0.048 -4.858,2.562 0,0 -0.084,0.333 -0.399,0.045 0,0 -0.371,-0.041 -0.087,-0.397 0,0 2.656,-2.724 5.148,-2.512 0,0 0.506,-0.177 0.511,0.227 0,0 -0.053,0.249 -0.315,0.075"
       style="fill:#9da2a9;fill-opacity:1;fill-rule:nonzero;stroke:none"
       transform="matrix(1.4542905,-0.839635,-0.839635,-1.4542905,80.640928,53.965649)"
       id="path30" />
    <path
       d="m 0,0 c 0,0 -0.152,0.202 -0.317,-0.066 0,0 -2.068,-0.916 -5.485,0.254 0,0 -0.22,0.267 -0.383,-0.128 0,0 -0.316,-0.193 0.093,-0.394 0,0 3.559,-1.338 5.728,-0.089 0,0 0.533,0.056 0.364,0.423"
       style="fill:#9da2a9;fill-opacity:1;fill-rule:nonzero;stroke:none"
       transform="matrix(1.4542905,-0.839635,-0.839635,-1.4542905,79.976815,39.581123)"
       id="path31" />
    <path
       d="m 0,0 c 0,0 2.066,-0.921 3.484,-4.244 0,0 -0.05,-0.34 0.353,-0.196 0,0 0.355,-0.106 0.23,0.334 0,0 -1.39,3.536 -3.77,4.31 0,0 -0.399,0.358 -0.559,-0.012 0,0 -0.049,-0.251 0.262,-0.192"
       style="fill:#9da2a9;fill-opacity:1;fill-rule:nonzero;stroke:none"
       transform="matrix(1.4542905,-0.839635,-0.839635,-1.4542905,10.696719,35.299349)"
       id="path32" />
    <path
       d="M 0,0 C 0.416,-0.089 0.321,0.241 0.321,0.241 1.277,3.726 3.199,4.919 3.199,4.919 3.514,4.903 3.434,5.144 3.434,5.144 3.225,5.49 2.878,5.079 2.878,5.079 0.626,3.992 -0.273,0.298 -0.273,0.298 -0.338,-0.153 0,0 0,0"
       style="fill:#9da2a9;fill-opacity:1;fill-rule:nonzero;stroke:none"
       transform="matrix(1.4542905,-0.839635,-0.839635,-1.4542905,46.363042,22.163612)"
       id="path33" />
  </g>
  <g
     id="Pillbug"
     style="display:none">
    <path
       d="m 0,0 c 0,0 -0.638,-0.008 -0.537,0.265 0.098,0.27 0.065,0.809 0.32,0.856 0,0 0.382,0.096 0.749,-0.913 C 0.532,0.208 0.458,-0.018 0,0"
       style="fill:#4dc3bb;fill-opacity:1;fill-rule:nonzero;stroke:none"
       transform="matrix(1.4542905,-0.839635,-0.839635,-1.4542905,60.593693,85.301726)"
       id="path34" />
    <path
       d="M 0,0 C 0,0 0.636,0.007 0.532,0.276 0.427,0.545 0.445,1.085 0.191,1.127 c 0,0 -0.384,0.085 -0.729,-0.931 0,0 0.079,-0.224 0.538,-0.196"
       style="fill:#4dc3bb;fill-opacity:1;fill-rule:nonzero;stroke:none"
       transform="matrix(1.4542905,-0.839635,-0.839635,-1.4542905,67.126876,81.431858)"
       id="path35" />
    <path
       d="m 0,0 -0.111,0.143 c 0,0 -1.474,-0.115 -2.011,-0.649 l -0.114,0.192 c 0,0 -4.959,-0.83 -5.946,-0.455 l -0.052,-0.241 -0.602,0.042 c 0,0 -1.3,-1.028 -1.51,-1.657 -0.213,-0.63 -0.053,-0.146 -0.053,-0.146 0,0 -1.088,-0.3 -1.08,-1.072 l -0.489,-0.198 -0.089,-0.876 -0.302,-0.239 -0.545,0.044 0.047,0.48 -0.33,0.144 -0.112,0.001 -0.031,0.045 -0.829,-0.034 -0.829,0.015 -0.029,-0.046 -0.114,-0.005 -0.325,-0.147 0.06,-0.482 -0.546,-0.055 -0.284,0.215 -0.11,0.891 -0.493,0.187 c -0.009,0.771 -1.104,1.047 -1.104,1.047 0,0 0.169,-0.48 -0.058,0.144 -0.225,0.624 -1.547,1.623 -1.547,1.623 l -0.6,-0.056 -0.056,0.242 c -0.979,-0.398 -5.956,0.319 -5.956,0.319 l -0.108,-0.196 c -0.553,0.525 -2.026,0.604 -2.026,0.604 l -0.11,-0.145 c -0.989,0.616 -2.295,0.216 -2.295,0.216 0.01,-0.869 2.247,-0.699 2.247,-0.699 l 0.222,-0.383 c 0.059,-0.336 1.857,0.021 1.857,0.021 l 0.166,-0.191 c 0.223,-0.48 5.738,-0.274 5.738,-0.274 l 0.271,0.151 c -0.158,-0.63 1.93,-1.667 1.93,-1.667 -0.431,-0.585 0.83,-0.957 0.83,-0.957 l -0.217,-0.243 0.041,-0.435 -0.036,0.002 -0.754,-0.974 0.221,-0.238 c 0,0 -1.299,-0.931 -0.529,-1.357 0,0 0.245,-0.128 0.598,-0.209 a 3.6,3.6 0 0 1 1.386,0.149 q 0.101,0.056 0.199,0.134 l 0.077,0.001 q 0.227,0.106 0.453,0.189 l 0.013,0.009 a 5,5 0 0 0 1.223,0.285 l 0.098,0.01 q 0.042,0.005 0.088,0.008 l 0.063,0.003 q 0.05,0.006 0.101,0.007 l 0.058,0.004 0.102,0.004 0.081,0.001 h 0.078 l 0.101,-0.001 0.061,-0.002 q 0.05,0 0.1,-0.004 0.03,-0.003 0.066,-0.002 l 0.086,-0.007 0.097,-0.007 0.052,-0.006 c 0.716,-0.072 1.178,-0.252 1.178,-0.252 l 0.013,-0.01 q 0.229,-0.075 0.458,-0.178 l 0.138,0.002 a 1.5,1.5 0 0 1 0.264,-0.163 3.4,3.4 0 0 1 1.393,-0.065 c 0.314,0.088 0.528,0.204 0.528,0.204 0.758,0.442 -0.562,1.344 -0.562,1.344 l 0.215,0.244 -0.774,0.955 -0.016,-0.001 0.031,0.435 -0.222,0.239 c 0,0 1.252,0.399 0.81,0.973 0,0 2.062,1.084 1.891,1.71 l 0.275,-0.142 c 0,0 5.516,-0.082 5.73,0.402 l 0.161,0.194 c 0,0 1.805,-0.316 1.857,0.022 l 0.213,0.389 c 0,0 2.242,-0.121 2.231,0.747 0,0 -1.314,0.37 -2.291,-0.266"
       style="fill:#4dc3bb;fill-opacity:1;fill-rule:nonzero;stroke:none"
       transform="matrix(1.4542905,-0.839635,-0.839635,-1.4542905,49.464763,12.30183)"
       id="path36" />
    <path
       d="m 0,0 0.574,1.229 c 0,0 -0.015,0.41 -0.391,0.124 L -0.549,0.621 a 10.7,10.7 0 0 1 -1.88,1.549 c 0,0 0.566,-1.777 -1.187,-1.411 0,0 -0.789,-0.175 -1.719,0.148 l -0.004,0.027 a 6,6 0 0 1 -0.559,0.225 l -0.015,0.008 c 0,0 -0.461,0.181 -1.176,0.253 l -0.055,0.005 -0.096,0.008 -0.086,0.005 -0.066,0.004 -0.1,0.003 -0.06,10e-4 -0.103,0.003 Q -7.69,1.447 -7.733,1.447 L -7.813,1.446 -7.913,1.443 -7.973,1.44 -8.072,1.435 -8.139,1.43 -8.226,1.423 -8.321,1.411 -8.376,1.405 A 5,5 0 0 1 -9.544,1.127 L -9.56,1.118 a 5,5 0 0 1 -0.555,-0.24 L -10.117,0.852 C -11.039,0.508 -11.834,0.666 -11.834,0.666 -13.577,0.26 -13.05,2.051 -13.05,2.051 a 10.7,10.7 0 0 1 -1.811,-1.554 l -0.708,0.678 c -0.381,0.277 -0.39,-0.131 -0.39,-0.131 l 0.573,-1.159 c -1.774,-2.254 -1.904,-4.44 -1.904,-4.44 0.102,0.724 1.73,1.563 1.73,1.563 0.199,-0.022 0.436,-0.039 0.701,-0.053 0.238,-0.039 0.394,-0.079 0.394,-0.079 0.384,-0.128 0.948,-0.214 1.622,-0.265 1.581,-0.413 3.492,-0.486 5.169,-0.43 1.679,-0.017 3.586,0.098 5.159,0.547 0.672,0.067 1.236,0.166 1.619,0.3 0,0 0.154,0.043 0.393,0.089 0.263,0.02 0.498,0.042 0.697,0.068 0,0 1.647,-0.8 1.763,-1.523 0,0 -0.175,2.146 -1.957,4.338"
       style="fill:#4dc3bb;fill-opacity:1;fill-rule:nonzero;stroke:none"
       transform="matrix(1.4542905,-0.839635,-0.839635,-1.4542905,47.784267,30.953861)"
       id="path37" />
    <path
       d="M 0,0 0.474,-0.137 C 0.652,0.253 0.888,0.646 1.193,1.016 0.811,0.78 0.252,0.395 0,0"
       style="fill:#4dc3bb;fill-opacity:1;fill-rule:nonzero;stroke:none"
       transform="matrix(1.4542905,-0.839635,-0.839635,-1.4542905,27.131335,52.781714)"
       id="path38" />
    <path
       d="m 0,0 c 0.321,-0.368 0.569,-0.765 0.759,-1.155 l 0.473,0.149 C 0.977,-0.613 0.396,-0.23 0,0"
       style="fill:#4dc3bb;fill-opacity:1;fill-rule:nonzero;stroke:none"
       transform="matrix(1.4542905,-0.839635,-0.839635,-1.4542905,51.951615,36.118652)"
       id="path39" />
    <path
       d="M 0,0 -0.657,-0.206 -0.735,-0.229 -1.209,-0.378 A 5.2,5.2 0 0 1 -1.968,0.777 8,8 0 0 1 -2.375,1 13,13 0 0 0 -3.073,0.93 C -3.313,0.885 -3.467,0.843 -3.467,0.843 -3.848,0.705 -4.412,0.608 -5.084,0.54 c -1.571,-0.449 -3.48,-0.561 -5.158,-0.546 -1.679,-0.055 -3.588,0.017 -5.168,0.43 -0.674,0.054 -1.24,0.138 -1.625,0.265 0,0 -0.155,0.039 -0.395,0.079 -0.264,0.014 -0.501,0.033 -0.7,0.053 0,0 -0.171,-0.088 -0.406,-0.231 a 5.2,5.2 0 0 1 -0.72,-1.152 l -0.473,0.136 -0.087,0.026 -0.593,0.171 c -0.487,0.078 -0.268,-0.282 -0.268,-0.282 l 1.146,-0.767 c -0.311,-0.982 -0.303,-1.777 -0.303,-1.777 0.481,0.969 1.79,1.033 1.79,1.033 0.29,-0.121 0.835,-0.203 1.535,-0.256 0.322,-0.064 0.704,-0.11 1.129,-0.143 1.581,-0.412 3.491,-0.484 5.17,-0.43 1.678,-0.015 3.585,0.097 5.158,0.546 0.423,0.043 0.805,0.099 1.123,0.167 0.701,0.072 1.245,0.167 1.531,0.292 0,0 1.31,-0.034 1.812,-0.991 0,0 -0.008,0.77 -0.326,1.727 l 1.184,0.836 c 0,0 0.212,0.363 -0.272,0.274"
       style="fill:#4dc3bb;fill-opacity:1;fill-rule:nonzero;stroke:none"
       transform="matrix(1.4542905,-0.839635,-0.839635,-1.4542905,55.466214,35.59628)"
       id="path40" />
    <path
       d="m 0,0 c -0.32,-0.07 -0.7,-0.123 -1.124,-0.166 -1.573,-0.449 -3.48,-0.563 -5.158,-0.546 -1.678,-0.056 -3.588,0.016 -5.17,0.43 -0.425,0.033 -0.806,0.078 -1.127,0.14 -0.702,0.056 -1.247,0.14 -1.537,0.258 0,0 -0.352,-0.017 -0.757,-0.169 l -0.076,-0.091 -0.037,-0.004 a 3.3,3.3 0 0 1 -0.644,-0.985 c -0.925,-1.636 -0.409,-2.583 -0.409,-2.583 0.476,1.308 2.998,0.661 2.998,0.661 0.385,-0.129 0.951,-0.213 1.624,-0.265 1.579,-0.414 3.491,-0.486 5.17,-0.429 1.676,-0.019 3.585,0.098 5.157,0.546 0.673,0.066 1.236,0.163 1.618,0.301 0,0 2.504,0.704 3.009,-0.593 0,0 0.495,0.958 -0.465,2.572 A 3.3,3.3 0 0 1 2.405,0.048 L 2.366,0.052 C 2.346,0.08 2.316,0.111 2.29,0.14 A 2.8,2.8 0 0 1 1.527,0.292 C 1.246,0.167 0.699,0.072 0,0"
       style="fill:#4dc3bb;fill-opacity:1;fill-rule:nonzero;stroke:none"
       transform="matrix(1.4542905,-0.839635,-0.839635,-1.4542905,52.292483,43.258158)"
       id="path41" />
    <path
       d="M 0,0 C 0.158,-0.214 0.282,-0.437 0.379,-0.659 L 0.68,-0.46 C 0.521,-0.229 0.277,-0.086 0,0"
       style="fill:#4dc3bb;fill-opacity:1;fill-rule:nonzero;stroke:none"
       transform="matrix(1.4542905,-0.839635,-0.839635,-1.4542905,59.389069,46.307083)"
       id="path42" />
    <path
       d="m 0,0 0.296,-0.187 q 0.133,0.32 0.35,0.631 C 0.383,0.356 0.155,0.219 0,0"
       style="fill:#4dc3bb;fill-opacity:1;fill-rule:nonzero;stroke:none"
       transform="matrix(1.4542905,-0.839635,-0.839635,-1.4542905,32.815885,62.903484)"
       id="path43" />
    <path
       d="M 0,0 -2.058,-0.071 H -2.074 L -2.271,-0.202 -2.572,-0.401 A 3.4,3.4 0 0 1 -2.951,0.258 C -3.867,0.537 -5.166,0.172 -5.166,0.172 -5.548,0.038 -6.11,-0.061 -6.784,-0.129 c -1.571,-0.449 -3.479,-0.561 -5.159,-0.546 -1.677,-0.054 -3.586,0.017 -5.168,0.429 -0.672,0.053 -1.239,0.138 -1.623,0.266 0,0 -1.307,0.335 -2.217,0.036 a 3.4,3.4 0 0 1 -0.35,-0.631 l -0.296,0.186 -0.151,0.096 h -0.091 l -1.983,0.023 c -0.49,-0.05 -0.16,-0.336 -0.16,-0.336 l 2.438,-0.778 c -0.136,-0.718 -0.055,-1.281 -0.055,-1.281 0.487,0.44 -0.223,0.433 1.029,0.735 1.253,0.304 3.175,-0.736 3.175,-0.736 1.638,-0.488 3.692,-0.574 5.481,-0.516 1.791,-0.017 3.842,0.114 5.468,0.64 0,0 1.899,1.082 3.158,0.808 1.26,-0.277 0.55,-0.284 1.047,-0.711 0,0 0.067,0.55 -0.08,1.254 l 2.489,0.856 c 0,0 0.323,0.294 -0.168,0.335"
       style="fill:#4dc3bb;fill-opacity:1;fill-rule:nonzero;stroke:none"
       transform="matrix(1.4542905,-0.839635,-0.839635,-1.4542905,63.897622,44.204501)"
       id="path44" />
    <path
       d="m 0,0 c -1.259,0.274 -3.158,-0.807 -3.158,-0.807 -1.625,-0.528 -3.678,-0.659 -5.467,-0.64 -1.789,-0.059 -3.845,0.026 -5.481,0.517 0,0 -1.924,1.038 -3.176,0.735 -1.252,-0.303 -1.033,-0.699 -1.039,-0.637 -0.366,-0.729 -0.082,-1.739 -0.082,-1.739 0.924,0.493 4.983,-1.002 4.983,-1.002 1.487,-0.48 3.243,-0.572 4.824,-0.507 1.583,-0.027 3.335,0.103 4.813,0.614 0,0 4.024,1.587 4.957,1.116 0,0 0.263,1.015 -0.119,1.739 C 1.05,-0.674 1.259,-0.274 0,0"
       style="fill:#4dc3bb;fill-opacity:1;fill-rule:nonzero;stroke:none"
       transform="matrix(1.4542905,-0.839635,-0.839635,-1.4542905,61.315182,50.741432)"
       id="path45" />
    <path
       d="M 0,0 A 0.2,0.2 0 0 0 0.039,0.022 C 0.02,0.026 0.001,0.024 -0.017,0.026 Q -0.007,0.016 0,0"
       style="fill:#4dc3bb;fill-opacity:1;fill-rule:nonzero;stroke:none"
       transform="matrix(1.4542905,-0.839635,-0.839635,-1.4542905,65.108253,54.677331)"
       id="path46" />
    <path
       d="M 0,0 -2.496,0.221 C -2.508,0.154 -2.519,0.117 -2.519,0.117 A 0.9,0.9 0 0 1 -2.879,0.198 0.2,0.2 0 0 1 -2.918,0.176 Q -2.926,0.191 -2.935,0.202 C -4.296,0.255 -7.475,-1 -7.475,-1 c -1.479,-0.51 -3.23,-0.642 -4.813,-0.614 -1.581,-0.063 -3.335,0.03 -4.825,0.505 0,0 -4.058,1.499 -4.982,1.006 l -0.022,0.093 -2.419,-0.265 c 0,0 -0.396,-0.216 0.071,-0.363 l 2.028,-0.379 0.318,0.118 q -0.012,-0.037 -0.02,-0.072 c -0.104,-0.485 0.08,-2.217 0.08,-2.217 1.521,0.595 6.182,-1.041 6.182,-1.041 a 24,24 0 0 1 3.621,-0.219 c 1.045,0.005 2.256,0.087 3.614,0.302 0,0 4.622,1.739 6.158,1.177 0,0 0.144,1.738 0.031,2.221 l -0.033,0.102 0.403,-0.14 2.022,0.423 C 0.399,-0.206 0,0 0,0"
       style="fill:#4dc3bb;fill-opacity:1;fill-rule:nonzero;stroke:none"
       transform="matrix(1.4542905,-0.839635,-0.839635,-1.4542905,69.498662,52.483117)"
       id="path47" />
    <path
       d="m 0,0 -3.223,1.074 -0.06,-0.009 c 0.072,0.601 0.066,1.145 -0.138,1.359 0,0 -0.009,0.174 -0.108,0.403 -1.903,0.069 -5.509,-1.286 -5.509,-1.286 a 23,23 0 0 0 -3.612,-0.302 24,24 0 0 0 -3.622,0.22 c 0,0 -3.636,1.274 -5.532,1.161 -0.095,-0.23 -0.1,-0.405 -0.1,-0.405 -0.199,-0.216 -0.194,-0.758 -0.109,-1.357 l -3.183,-1.142 c 0,0 -0.396,-0.374 0.206,-0.43 l 2.538,0.091 0.644,0.447 c 0.158,-0.651 0.325,-1.173 0.325,-1.173 0.969,1.313 4.141,0.915 4.141,0.915 1.581,-0.224 3.238,-0.267 4.712,-0.232 1.477,-0.002 3.132,0.079 4.707,0.338 0,0 3.162,0.469 4.16,-0.821 0,0 0.163,0.549 0.308,1.223 L -2.737,-0.4 -0.196,-0.434 C 0.404,-0.365 0,0 0,0"
       style="fill:#4dc3bb;fill-opacity:1;fill-rule:nonzero;stroke:none"
       transform="matrix(1.4542905,-0.839635,-0.839635,-1.4542905,75.590349,61.675969)"
       id="path48" />
    <path
       d="m 0,0 c -1.575,-0.259 -3.231,-0.341 -4.706,-0.336 -1.477,-0.036 -3.131,0.007 -4.714,0.231 0,0 -2.342,0.292 -3.616,-0.459 0.317,-0.86 0.747,-1.647 0.747,-1.647 0.442,-0.672 0.765,-0.04 0.765,-0.04 0.587,1.02 2.394,0.557 2.394,0.557 a 10,10 0 0 1 1.045,-0.298 c 0.998,-0.296 2.343,-0.608 3.44,-0.555 1.099,-0.029 2.435,0.314 3.426,0.633 0.393,0.1 0.754,0.208 1.038,0.321 0,0 1.795,0.503 2.41,-0.504 0,0 0.334,-0.624 0.762,0.057 0,0 0.4,0.778 0.697,1.629 C 2.411,0.357 0,0 0,0"
       style="fill:#4dc3bb;fill-opacity:1;fill-rule:nonzero;stroke:none"
       transform="matrix(1.4542905,-0.839635,-0.839635,-1.4542905,65.086799,70.05998)"
       id="path49" />
    <path
       d="M 0,0 -0.003,-0.008 C -0.001,-0.008 0,-0.008 0,0"
       style="fill:#4dc3bb;fill-opacity:1;fill-rule:nonzero;stroke:none"
       transform="matrix(1.4542905,-0.839635,-0.839635,-1.4542905,36.110577,68.586476)"
       id="path50" />
    <path
       d="M 0,0 -0.003,0.006 Q -0.005,-0.003 0,0"
       style="fill:#4dc3bb;fill-opacity:1;fill-rule:nonzero;stroke:none"
       transform="matrix(1.4542905,-0.839635,-0.839635,-1.4542905,64.114698,52.00712)"
       id="path51" />
    <path
       d="m 0,0 a 0.9,0.9 0 0 0 0.36,-0.081 c 0,0 0.011,0.037 0.023,0.103 L 0.093,0.046 A 0.3,0.3 0 0 1 0,0"
       style="fill:#4dc3bb;fill-opacity:1;fill-rule:nonzero;stroke:none"
       transform="matrix(1.4542905,-0.839635,-0.839635,-1.4542905,65.145747,54.612389)"
       id="path52" />
    <path
       d="M 0,0 -0.021,0.042 -2.666,1.965 H -2.668 Q -2.693,1.971 -2.72,1.972 l -0.083,0.003 q 0.043,0.074 0.082,0.16 c -0.122,0.169 -0.281,0.29 -0.458,0.373 L -3.182,2.51 c -0.029,0.013 -0.057,0.028 -0.09,0.037 L -3.273,2.549 A 1,1 0 0 1 -3.36,2.582 L -3.365,2.584 Q -3.413,2.599 -3.457,2.609 L -3.463,2.612 -3.554,2.635 Q -3.558,2.634 -3.561,2.636 -3.607,2.643 -3.651,2.654 H -3.66 Q -3.704,2.662 -3.749,2.667 H -3.76 l -0.089,0.012 h -0.009 l -0.089,0.005 -0.012,0.002 -0.085,0.002 h -0.11 L -4.233,2.687 -4.251,2.686 -4.325,2.682 -4.343,2.68 q -0.036,0 -0.07,-0.004 L -4.435,2.672 -4.499,2.666 -4.524,2.664 -4.58,2.659 A 0.1,0.1 0 0 0 -4.608,2.655 L -4.656,2.646 -4.689,2.643 -4.729,2.637 -4.768,2.63 -4.794,2.625 -4.841,2.616 q -0.008,0 -0.014,-0.003 A 3,3 0 0 1 -5.079,2.563 9,9 0 0 0 -6.116,2.242 C -7.045,1.941 -8.277,1.623 -9.334,1.607 c -0.07,0 -0.14,-0.002 -0.209,0.002 -0.067,-0.005 -0.14,-0.005 -0.208,-0.006 -1.057,-0.008 -2.296,0.283 -3.231,0.561 a 9,9 0 0 0 -1.044,0.299 c 0,0 -0.086,0.021 -0.226,0.043 q -0.009,0.004 -0.015,0.004 l -0.046,0.008 -0.028,0.004 -0.038,0.005 -0.041,0.006 -0.031,0.003 c -0.018,0.004 -0.032,0.004 -0.05,0.007 q -0.014,0 -0.026,0.002 l -0.059,0.006 -0.022,0.002 -0.066,0.005 -0.02,0.002 -0.071,0.003 h -0.019 l -0.075,0.003 -0.017,-10e-4 q -0.039,0.002 -0.079,10e-4 h -0.014 l -0.083,-0.003 h -0.013 q -0.041,10e-4 -0.087,-0.004 L -15.161,2.558 -15.25,2.549 h -0.01 l -0.09,-0.011 h -0.007 l -0.091,-0.017 h -0.007 Q -15.504,2.509 -15.547,2.502 -15.548,2.5 -15.555,2.5 L -15.645,2.475 -15.649,2.474 -15.74,2.445 -15.744,2.442 Q -15.788,2.427 -15.832,2.408 L -15.836,2.406 Q -15.879,2.39 -15.923,2.367 l -0.002,-0.002 a 1.2,1.2 0 0 1 -0.449,-0.386 q 0.04,-0.08 0.082,-0.158 -0.038,0 -0.08,-0.004 l -0.054,-0.006 h -0.001 l -2.599,-1.983 c 0,0 -0.011,-0.015 -0.023,-0.043 -0.039,-0.092 -0.106,-0.31 0.154,-0.315 a 0.7,0.7 0 0 1 0.174,0.02 l 2.301,0.817 0.304,0.39 0.315,0.407 c 0.17,-0.298 0.341,-0.423 0.503,-0.443 0.5,0.052 0.904,1.041 0.904,1.041 0.048,0.054 0.097,0.096 0.141,0.136 0.052,0.099 0.153,0.22 0.385,0.23 a 0.4,0.4 0 0 0 0.154,0.012 0.34,0.34 0 0 0 0.237,-0.053 c 0.736,-0.162 0.035,-0.678 0.035,-0.678 -0.924,-0.504 -0.508,-1.919 -0.44,-1.987 l 0.032,-0.033 c 0.202,-0.192 0.39,-0.264 0.551,-0.272 0.279,0.021 0.46,0.22 0.46,0.22 0.081,0.824 0.58,1.303 0.58,1.303 0.079,0.062 0.152,0.074 0.217,0.061 l 0.003,0.001 0.004,-0.002 c 0.128,-0.029 0.701,-0.599 0.961,-0.901 0.168,-0.24 0.288,-0.439 0.288,-0.439 0.293,-1.066 0.902,-1.166 1.162,-1.157 l 0.02,-0.001 0.056,0.006 c 0.015,0 0.027,-0.002 0.044,-0.004 l 0.042,0.006 0.059,-0.005 h 0.018 c 0.263,-0.002 0.868,0.111 1.138,1.184 0,0 0.114,0.202 0.277,0.444 0.25,0.304 0.798,0.893 0.944,0.926 h 0.003 A 0.2,0.2 0 0 0 -6.942,0.7 h 0.003 c 0.041,-0.008 0.128,-0.06 0.128,-0.06 0.216,-0.13 0.515,-0.458 0.613,-1.288 0,0 0.186,-0.195 0.468,-0.209 0.16,0.011 0.347,0.086 0.544,0.283 0.01,0.012 0.022,0.021 0.032,0.035 0.066,0.068 0.45,1.494 -0.484,1.976 0,0 -0.715,0.5 0.018,0.678 0.056,0.039 0.134,0.07 0.237,0.06 a 0.4,0.4 0 0 0 0.156,-0.01 c 0.23,-0.005 0.334,-0.123 0.386,-0.221 q 0.07,-0.058 0.146,-0.132 c 0,0 0.425,-0.982 0.927,-1.02 0.163,0.021 0.33,0.151 0.492,0.454 l 0.324,-0.4 0.313,-0.384 2.318,-0.763 a 0.7,0.7 0 0 1 0.175,-0.018 C 0.114,-0.308 0.042,-0.091 0,0"
       style="fill:#4dc3bb;fill-opacity:1;fill-rule:nonzero;stroke:none"
       transform="matrix(1.4542905,-0.839635,-0.839635,-1.4542905,76.443487,73.246197)"
       id="path53" />
  </g>
  <g
     id="Queen"
     style="display:none">
    <path
       d="M 0,0 C 0,0 -2.393,-1.812 -6.729,-2.892 L 0.545,0.449 Q 0.281,0.238 0,0 m -7.758,-2.43 c -3.961,2.559 -7.777,-0.073 -7.777,-0.073 l -0.315,0.496 c 0.342,1.565 2.077,2.77 4.174,2.787 2.129,0.019 3.908,-1.19 4.237,-2.787 z m -15.109,2.14 c -0.194,0.157 -0.375,0.301 -0.557,0.436 l 7.338,-3.206 c -4.355,1.001 -6.781,2.77 -6.781,2.77 M 7.422,8.688 c 0,0 -1.981,1.295 -6.268,-1.179 0,0 -6.238,-6.553 -8.715,-8.805 l 0.153,0.202 a 3,3 0 0 1 -0.535,1.165 c 0.146,0.161 0.297,0.382 0.341,0.651 0,0 0.596,1.22 0.897,1.457 0,0 0.25,0.592 0.242,1.101 0,0 1.053,1.217 1.092,2.56 0,0 0.139,1.372 0.389,1.651 0,0 -0.153,0.31 -0.104,0.43 l 0.201,0.003 -0.049,0.118 0.301,0.079 -0.053,0.193 0.303,0.16 0.151,0.081 -0.102,0.118 0.254,0.041 -0.152,0.155 0.302,0.002 0.2,0.159 0.353,0.081 -0.002,0.117 -0.25,-0.002 -0.303,-0.08 0.047,0.157 L -4.09,9.489 -4.49,9.063 -5.047,9.021 -4.941,8.705 -5.496,8.424 -5.393,7.996 -5.641,7.953 -5.539,7.76 -5.893,7.48 -5.885,6.814 c 0,0 -0.045,-0.587 -0.244,-0.981 0,0 -0.705,-0.479 -0.641,-1.97 0,0 -0.396,-1.059 -1.048,-1.654 0,0 -0.299,-0.787 -0.344,-0.984 C -8.174,1.18 -8.184,1.151 -8.184,1.137 -8.252,1.092 -8.5,0.931 -8.67,0.791 q -0.081,0.06 -0.168,0.118 c 0.16,0.269 0.246,0.559 0.244,0.87 -0.008,0.771 -0.572,1.444 -1.418,1.83 0.215,0.587 0.567,2.199 0.567,2.199 0.232,0.274 1.675,2.854 1.675,2.854 -0.328,0.057 -1.736,-2.53 -1.736,-2.53 -0.115,-0.077 -0.613,-2.086 -0.699,-2.437 a 4.1,4.1 0 0 1 -1.5,0.258 4.2,4.2 0 0 1 -1.326,-0.227 c -0.11,0.414 -0.627,2.329 -0.74,2.401 0,0 -1.454,2.561 -1.782,2.501 0,0 1.49,-2.555 1.729,-2.825 0,0 0.363,-1.542 0.59,-2.151 -0.93,-0.39 -1.555,-1.11 -1.547,-1.929 0.004,-0.323 0.107,-0.627 0.281,-0.903 -0.068,-0.05 -0.139,-0.1 -0.205,-0.156 -0.152,0.144 -0.492,0.355 -0.576,0.406 -0.002,0.019 -0.01,0.045 -0.022,0.09 -0.051,0.197 -0.361,0.98 -0.361,0.98 -0.664,0.582 -1.08,1.634 -1.08,1.634 0.037,1.494 -0.674,1.955 -0.674,1.955 -0.209,0.392 -0.264,0.978 -0.264,0.978 l -0.007,0.669 -0.356,0.272 0.1,0.196 -0.25,0.034 0.095,0.435 -0.56,0.268 0.098,0.317 -0.557,0.031 -0.408,0.421 -0.198,-0.189 0.049,-0.157 -0.303,0.075 -0.253,-0.004 V 8.959 l 0.353,-0.075 0.205,-0.155 h 0.305 l -0.151,-0.157 0.25,-0.034 -0.095,-0.12 0.148,-0.075 0.307,-0.157 -0.047,-0.196 0.303,-0.073 -0.051,-0.118 h 0.205 c 0.051,-0.118 -0.096,-0.432 -0.096,-0.432 0.252,-0.273 0.418,-1.643 0.418,-1.643 0.065,-1.341 1.137,-2.54 1.137,-2.54 0.002,-0.509 0.262,-1.096 0.262,-1.096 0.306,-0.232 0.925,-1.442 0.925,-1.442 0.061,-0.331 0.28,-0.588 0.461,-0.747 a 3.5,3.5 0 0 1 -0.253,-0.458 3,3 0 0 1 -0.147,-0.433 c -2.769,2.524 -8.363,8.189 -8.363,8.189 -4.33,2.396 -6.285,1.066 -6.285,1.066 -1.272,-3.447 2.42,-6.202 2.488,-6.254 -0.276,-0.114 -0.371,-0.286 -0.371,-0.286 -0.922,-1.695 2.949,-4.566 2.949,-4.566 0.23,-0.231 1.762,-0.462 3.637,-0.663 -0.91,-0.017 -0.348,-0.243 -0.348,-0.243 -0.367,-1.035 1.139,-1.583 1.139,-1.583 0.23,-0.17 2.902,0.174 4.924,0.468 l 0.031,-0.122 a 1.9,1.9 0 0 1 -0.904,-0.639 c 0,0 -1.29,-1.078 -1.704,-1.194 0,0 -0.587,-0.543 -0.906,-1.119 0,0 -1.687,-0.847 -2.568,-2.338 0,0 -0.994,-1.478 -1.383,-1.667 0,0 -0.066,-0.425 -0.184,-0.533 l -0.175,0.099 -0.03,-0.157 -0.314,0.058 -0.08,-0.247 -0.362,-0.032 -0.181,-0.011 0.012,-0.185 -0.247,0.078 0.039,-0.25 -0.265,0.148 -0.276,-0.079 -0.361,0.081 -0.072,-0.132 0.219,-0.119 0.316,-0.062 -0.143,-0.151 0.061,-0.309 0.615,0.282 0.514,-0.228 0.109,0.406 0.657,0.039 0.181,0.535 0.246,-0.08 0.033,0.271 0.483,0.142 0.416,0.749 c 0,0 0.412,0.639 0.834,0.984 0,0 0.914,0.192 1.805,1.895 0,0 1.011,1.002 1.957,1.346 0,0 0.755,0.738 0.923,0.934 0.038,0.047 0.061,0.075 0.073,0.094 0.152,0.026 0.927,0.172 0.894,0.295 l 0.033,0.552 c 0.688,-1.025 2.299,-1.736 4.168,-1.721 2,0.02 3.686,0.863 4.258,2.016 l 0.069,-0.847 c -0.036,-0.123 0.748,-0.258 0.896,-0.279 0.014,-0.02 0.035,-0.045 0.076,-0.095 0.17,-0.191 0.942,-0.917 0.942,-0.917 0.947,-0.327 1.982,-1.309 1.982,-1.309 0.92,-1.688 1.836,-1.863 1.836,-1.863 0.426,-0.335 0.852,-0.969 0.852,-0.969 l 0.431,-0.743 0.483,-0.131 0.039,-0.268 0.244,0.084 0.193,-0.533 0.658,-0.029 0.116,-0.401 0.505,0.234 0.624,-0.268 0.054,0.309 -0.144,0.151 0.312,0.061 0.221,0.129 -0.074,0.132 -0.362,-0.091 -0.275,0.075 -0.262,-0.152 0.028,0.251 -0.243,-0.083 0.012,0.18 -0.182,0.015 -0.365,0.022 -0.084,0.242 -0.31,-0.062 -0.035,0.157 -0.172,-0.101 c -0.121,0.107 -0.194,0.53 -0.194,0.53 -0.396,0.183 -1.412,1.64 -1.412,1.64 -0.912,1.476 -2.609,2.29 -2.609,2.29 -0.33,0.571 -0.93,1.103 -0.93,1.103 -0.412,0.113 -1.724,1.166 -1.724,1.166 -0.34,0.442 -0.829,0.608 -1.073,0.666 q 0.048,0.14 0.069,0.286 c 2.054,-0.265 5.041,-0.611 5.283,-0.426 0,0 1.496,0.578 1.109,1.605 0,0 0.557,0.234 -0.351,0.239 1.871,0.236 3.392,0.492 3.623,0.725 0,0 3.816,2.944 2.863,4.619 0,0 -0.098,0.17 -0.375,0.283 0.064,0.045 3.709,2.87 2.379,6.296"
       style="fill:#f5a91e;fill-opacity:1;fill-rule:nonzero;stroke:#dd9b1e;stroke-width:0.55;stroke-linecap:butt;stroke-linejoin:miter;stroke-miterlimit:2;stroke-dasharray:none;stroke-opacity:1"
       transform="matrix(1.4542905,-0.839635,-0.839635,-1.4542905,59.744025,36.961715)"
       id="path54" />
    <path
       d="m 0,0 -0.238,-0.252 c -5.336,-5.706 -9.155,0.729 -9.155,0.729 a 8,8 0 0 0 -0.152,1.484 7.9,7.9 0 0 0 0.373,2.474 c 0,0 0.076,-5.414 4.483,-2.41 0,0 3.933,-2.745 4.414,1.805 l 0.111,0.634 c 0,0 0.103,-0.242 0.162,-0.516 H 0.004 A 7.7,7.7 0 0 0 0.25,2.052 7.6,7.6 0 0 0 0,0 m 3.809,-4.952 -0.305,-0.005 0.15,0.204 -0.254,0.05 0.102,0.152 -0.154,0.099 -0.305,0.2 0.049,0.256 -0.305,0.099 0.049,0.152 -0.203,-0.002 C 2.58,-3.599 2.73,-3.19 2.73,-3.19 2.475,-2.838 2.309,-1.068 2.309,-1.068 2.238,0.664 1.16,2.208 1.16,2.208 1.156,2.866 0.895,3.624 0.895,3.624 0.59,3.925 -0.031,5.489 -0.031,5.489 A 1.8,1.8 0 0 1 -0.178,5.968 3.1,3.1 0 0 0 -0.725,5.042 0.3,0.3 0 0 0 -0.676,5.001 c -3.465,-2.526 -6.666,-0.81 -7.879,0.041 -0.33,0.08 -0.533,0.363 -0.687,0.716 A 5,5 0 0 0 -9.379,6.102 1.7,1.7 0 0 1 -9.588,5.48 c 0,0 -0.592,-1.575 -0.894,-1.879 0,0 -0.245,-0.763 -0.239,-1.42 0,0 -1.05,-1.567 -1.086,-3.3 0,0 -0.134,-1.773 -0.384,-2.127 0,0 0.156,-0.406 0.107,-0.559 l -0.203,-0.003 0.053,-0.15 -0.303,-0.103 0.051,-0.253 -0.299,-0.205 -0.151,-0.102 0.102,-0.15 -0.254,-0.054 0.154,-0.198 -0.304,-0.006 -0.2,-0.204 -0.353,-0.104 0.002,-0.152 0.254,0.004 0.299,0.101 -0.047,-0.202 0.205,-0.238 0.4,0.548 0.555,0.053 -0.104,0.406 0.553,0.361 -0.107,0.555 0.256,0.05 -0.104,0.256 0.35,0.355 -0.008,0.861 c 0,0 0.043,0.759 0.242,1.268 0,0 0.705,0.612 0.635,2.535 0,0 0.176,0.615 0.486,1.249 A 7,7 0 0 1 -9.945,2.007 l 0.002,-0.068 q -0.002,-0.023 0,-0.053 c 0.029,-3.487 2.42,-6.295 5.338,-6.267 2.914,0.026 5.255,2.877 5.224,6.363 L 0.617,2.047 V 2.12 C 0.775,1.735 0.865,1.448 0.865,1.448 0.834,-0.475 1.547,-1.074 1.547,-1.074 1.754,-1.581 1.811,-2.34 1.811,-2.34 L 1.818,-3.199 2.176,-3.55 2.078,-3.805 2.332,-3.853 2.234,-4.409 2.795,-4.759 2.697,-5.165 3.254,-5.21 l 0.412,-0.542 0.197,0.243 -0.05,0.2 0.302,-0.099 0.256,0.005 -0.004,0.15 -0.355,0.099 z"
       style="fill:#f5a91e;fill-opacity:1;fill-rule:nonzero;stroke:#dd9b1e;stroke-width:0.55;stroke-linecap:butt;stroke-linejoin:miter;stroke-miterlimit:2;stroke-dasharray:none;stroke-opacity:1"
       id="path55"
       transform="matrix(1.4542905,-0.839635,-0.839635,-1.4542905,61.155414,61.812738)" />
  </g>
  <path
     id="Spider"
     d="m 63.319379,45.03671 c -0.360212,0.215725 -0.775048,0.185704 -0.92864,-0.06689 -0.154432,-0.25405 0.01322,-0.632007 0.371756,-0.85064 0.355625,-0.216954 0.773369,-0.188612 0.924053,0.06566 0.155271,0.255504 -0.01322,0.632007 -0.367169,0.851869 m -5.485426,3.382246 c -0.563586,0.337021 -1.115888,0.448415 -1.245131,0.237994 -0.123816,-0.207737 0.231009,-0.651097 0.783965,-0.989737 0.563587,-0.337021 1.117568,-0.445507 1.242223,-0.236315 0.127563,0.207512 -0.224127,0.652941 -0.781057,0.988058 m -4.589788,1.370147 c -0.240084,0.437226 -1.368689,0.134817 -1.368689,0.134817 -0.220742,-0.130447 -0.370852,-0.863996 -0.370852,-0.863996 0.162606,-0.249004 1.533365,-0.386955 1.533365,-0.386955 0.411092,0.218331 0.206176,1.116134 0.206176,1.116134 m -0.22166,3.639581 c 0,0 2.695536,1.139001 2.659779,4.428871 0,0 -1.698977,6.790276 -9.452868,5.168699 0,0 -1.696692,-0.742285 -2.364314,-4.357077 0,0 6.611009,1.808294 9.157403,-5.240493 m 2.955632,-1.446603 1.682992,0.238287 c -0.309477,0.196128 -0.31101,1.348804 -0.31101,1.348804 l -1.21307,-0.794635 z m 5.397571,1.960124 c 0.26952,-0.235108 1.038166,0.1995 1.711255,0.972378 0.673704,0.770585 1.00292,1.592692 0.730491,1.829479 C 63.54648,56.980009 62.778449,56.543107 62.100772,55.769 61.425613,54.999255 61.103279,54.178992 61.375708,53.942204 m 6.204525,6.367043 c 0,0 1.658135,1.578943 1.389029,2.234584 l -0.844858,0.03792 -1.443837,-2.007097 c 0,0 0.332516,-0.401395 0.899666,-0.265408 m -25.867785,0.186416 -0.237463,1.63404 c 0,0 -0.857715,-0.97847 -1.217915,-0.900424 l 0.974841,-1.532346 z M 40.74931,66.94836 c 0.20463,1.002623 0.07959,1.877576 -0.27104,1.952038 -0.353154,0.0701 -0.808502,-0.685002 -1.010448,-1.693053 -0.209218,-1.003853 -0.08564,-1.877966 0.266677,-1.949519 0.354383,-0.07469 0.806823,0.682093 1.014811,1.690534 m 1.769696,8.764612 -0.5401,0.653099 c -0.688338,-0.174605 -0.952789,-2.449606 -0.952789,-2.449606 0.235075,-0.533224 0.752551,-0.560523 0.752551,-0.560523 z M 41.089533,55.507425 c 0,0 -0.280595,1.11601 -0.789614,1.17139 0,0 -0.905508,-0.157808 -0.904364,-0.602509 0,0 0.789614,-1.17139 1.090967,-1.227096 0,0 0.589002,0.412289 0.603011,0.658215 m -4.17816,4.655734 c -0.562747,0.338475 -1.116728,0.446961 -1.248879,0.238219 -0.119228,-0.206508 0.2281,-0.649418 0.791461,-0.990187 0.560678,-0.335342 1.115499,-0.442373 1.237635,-0.237544 0.127564,0.207512 -0.222898,0.648353 -0.780217,0.989512 m -5.628613,3.127522 c -0.349357,0.221091 -0.776278,0.190291 -0.944923,-0.07494 -0.169485,-0.266687 -0.02628,-0.66349 0.328442,-0.895437 0.350196,-0.219637 0.773369,-0.188612 0.948895,0.07847 0.168646,0.265233 0.02108,0.664555 -0.332414,0.891914 m 1.048766,-7.570546 c -0.112437,0.382918 -0.99689,0.46309 -1.981263,0.182118 -0.99103,-0.279068 -1.703096,-0.823905 -1.590659,-1.206824 0.110758,-0.385827 0.99728,-0.469132 1.987921,-0.184022 0.986442,0.277839 1.699347,0.82413 1.584001,1.208728 m -9.012033,-3.229796 c -0.08407,0.391749 -0.965764,0.530438 -1.967123,0.317443 -1.004267,-0.211315 -1.753798,-0.703497 -1.665979,-1.09547 0.08032,-0.391524 0.961176,-0.531667 1.967122,-0.317443 0.99845,0.214674 1.747757,0.703107 1.66598,1.09547 M 38.601845,50.573945 C 38.0609,51.037505 36.05226,49.93627 36.05226,49.93627 35.750954,49.44126 36.03081,49.0024 36.03081,49.0024 l 2.349119,0.757292 z M 32.788331,48.10161 C 32.493683,48.306628 31.77715,47.787639 31.191647,46.944803 30.606144,46.101966 30.370123,45.2532 30.66768,45.046502 c 0.298397,-0.205243 1.009502,0.311062 1.599593,1.155128 0.583209,0.842222 0.817776,1.691828 0.521058,1.89998 m 14.737578,-6.943937 c 0,0 0.512137,-0.103717 0.864733,0.355864 0,0 0.291302,2.271132 -0.329572,2.606325 L 47.374194,43.618654 Z M 46.280224,36.87414 c -0.584663,-0.841382 -0.816936,-1.690374 -0.523967,-1.898301 0.296103,-0.205858 1.009727,0.314811 1.598139,1.155968 0.581755,0.843061 0.820685,1.690149 0.519379,1.897071 -0.294649,0.205019 -1.008273,-0.31565 -1.593551,-1.154738 m 6.965634,1.78776 c -0.144269,-1.012265 0.05618,-1.88422 0.448555,-1.940123 0.396738,-0.05842 0.836764,0.717162 0.980419,1.731721 0.149306,1.020991 -0.04991,1.888358 -0.445197,1.94594 C 53.82747,40.455175 53.3941,39.677689 53.245858,38.6619 m -1.472964,-9.624291 c -0.0179,-1.025117 0.29602,-1.861752 0.691545,-1.865179 0.399273,-0.0037 0.738504,0.822368 0.75433,1.850618 0.01353,1.027636 -0.303516,1.862202 -0.70195,1.867309 -0.398433,0.0051 -0.734141,-0.824887 -0.743925,-1.852748 m 15.1665,10.329612 c 0,0 -1.774165,2.955601 -3.413674,4.156186 0,0 -1.344027,0.107005 -1.69938,0.992773 0,0 -2.656799,2.602315 -3.20001,2.276054 0,0 -1.636277,0.289309 -2.629736,1.336009 0,0 -2.335833,-0.673827 -2.690347,0.213394 0,0 -2.043292,0.05117 -2.285626,0.450916 l -1.227986,-0.02786 c -0.03166,-0.0011 -0.05774,-0.0093 -0.09108,-0.01334 l 0.54903,-0.892878 c 0,0 4.495178,-2.269533 4.677277,-4.362186 0,0 0.151247,-3.922749 0.410129,-4.535645 0,0 -0.07347,-2.32709 -0.794325,-2.880428 0,0 -1.597446,-4.929744 -0.869927,-5.217922 0,0 0.20417,-4.620335 -0.380094,-4.389657 0,0 0.98493,-8.107647 1.268333,-9.013923 -0.340437,0.820924 -3.147321,7.653625 -2.667538,8.891014 0,0 -1.576942,1.967226 0.195086,6.48399 0,0 1.002801,2.96948 0.908321,3.175273 0,0 -0.850038,1.681342 0.581738,5.330015 0,0 -2.879244,4.662031 -4.828653,5.262043 l -0.0093,0.02087 c -0.132806,0.0185 -0.274173,0.03226 -0.402001,0.04595 -0.158169,-1.093436 -0.183624,-1.617793 -0.183624,-1.617793 1.266631,-0.882535 0.789372,-6.464837 0.789372,-6.464837 C 48.171599,35.921757 46.349243,34.0886 46.349243,34.0886 45.924287,31.458349 40.42673,26.315812 40.42673,26.315812 29.538133,18.294152 30.228667,22.002364 30.228667,22.002364 c 1.7408,-0.578462 4.844553,1.583293 6.882967,3.243233 0.569935,0.621079 1.340702,1.391856 1.964695,1.710258 l 0.03262,0.02964 c 1.342599,1.724276 5.601553,7.401589 5.601553,7.401589 1.811721,5.478881 3.458601,3.360751 2.490553,4.968675 -0.97364,1.615032 0.148063,4.296752 -0.68285,5.080909 -0.451783,0.419839 -0.43382,1.132731 -0.317388,1.693759 a 41.9815,41.9815 0 0 0 -1.035298,-0.678161 c 0.457109,-0.907674 1.064242,-2.223845 0.892178,-2.508435 -0.265592,-0.426434 -0.727794,-3.188366 -1.493244,-2.905434 -0.761538,0.272916 -0.619202,0.663865 -0.619202,0.663865 0,0 0.674644,1.262558 0.889715,1.850016 0.174751,0.467246 -0.140115,1.651519 -0.441018,2.416653 -0.580199,-0.353381 -0.958173,-0.571443 -0.958173,-0.571443 -1.526333,0.328602 -2.32454,1.394428 -2.32454,1.394428 -0.01579,0.476427 -0.02695,0.917215 -0.03358,1.345695 -0.677576,-0.283589 -2.106395,-1.163078 -2.325707,-1.72094 -0.225475,-0.585328 -0.546203,-1.980476 -0.546203,-1.980476 0,0 -0.152741,-0.388819 -0.907112,-0.09677 -0.754145,0.295795 0.703854,2.676707 0.790449,3.179339 0.06682,0.411281 2.219937,1.262342 2.978804,1.559107 a 31.90594,31.90594 0 0 0 0.03274,1.598261 C 40.61124,49.3188 39.832415,48.890069 39.186862,49.202669 c -1.024461,0.492582 -3.120336,-1.535565 -4.973723,-1.215921 -1.851093,0.320258 0.722043,-0.44208 -3.726539,-4.127101 0,0 -3.737108,-6.032895 -4.849827,-7.913161 0,0 -0.126306,-0.299373 -0.309064,-0.787204 -0.25013,-0.88328 -0.610345,-2.071421 -0.932273,-2.847321 -0.671867,-2.369416 -1.167055,-5.242219 -0.166598,-6.448082 0,0 -3.203842,-1.999261 0.303184,11.067524 0,0 2.783453,6.990687 5.085043,8.347437 0,0 1.039475,2.364654 3.236334,4.057216 0,0 5.030964,2.470396 6.319365,1.612134 0,0 0.215419,0.104435 0.653874,0.339932 l -0.316901,0.07244 c -0.920816,1.830792 -5.996819,3.886916 -5.996819,3.886916 -3.35389,-2.017339 -5.15769,-1.460675 -5.15769,-1.460675 -0.214921,0.05428 -2.978427,-1.42747 -2.978427,-1.42747 -4.160258,-2.503851 -6.359313,-1.274946 -6.359313,-1.274946 -1.140923,-0.683106 -8.360231,0.948697 -9.2175143,1.143098 0.9377513,-0.132273 9.1018773,0.251909 9.1018773,0.251909 -0.325872,0.53717 4.26633,1.112427 4.26633,1.112427 0.405659,-0.67437 4.995984,1.724672 4.995984,1.724672 0.428513,0.809376 2.710292,1.272031 2.710292,1.272031 0.643921,-0.164291 4.539152,0.355749 4.539152,0.355749 2.095891,0.16084 5.084312,-3.885559 5.084312,-3.885559 l 0.87698,-0.35508 c 0.0034,0.0058 0.0021,0.0104 0.0088,0.02204 a 3.35852,3.35852 0 0 0 -0.451834,0.78247 l -0.421054,0.818991 c -0.473562,0.0194 -1.499014,1.786501 -1.499014,1.786501 -0.949301,-0.122829 -1.483815,2.252791 -1.483815,2.252791 -1.390993,0.364867 -2.436456,1.660703 -2.436456,1.660703 0.02694,0.62433 -3.53871,1.70956 -3.53871,1.70956 -0.945328,-0.119306 -1.683488,1.006865 -1.683488,1.006865 -1.846837,0.854917 -5.290274,0.99314 -5.290274,0.99314 l -1.073469,0.666304 c 1.948171,1.648053 6.402087,-0.719816 6.402087,-0.719816 0.490098,0.607062 1.716403,-0.06992 1.716403,-0.06992 -0.01979,-0.46752 4.76072,-2.696249 4.76072,-2.696249 0.773369,-0.188612 2.580185,-1.986065 2.580185,-1.986065 1.242294,-0.360456 1.340974,-1.774758 1.340974,-1.774758 0.776278,-0.190292 1.19014,-1.454988 1.19014,-1.454988 l 0.689441,-0.747077 c 0.45203,0.524332 0.860233,0.2809 0.860233,0.2809 l 0.155159,-0.09734 a 6.7170399,6.7170399 0 0 0 -0.311035,0.922229 l -0.58352,0.63163 a 20.15112,20.15112 0 0 1 -0.433462,1.72781 c -1.497396,0.372005 -3.06267,5.754905 -3.06267,5.754905 -0.23117,2.766686 0.81703,5.126302 0.81703,5.126302 -0.553459,2.611488 2.737226,9.37913 2.737226,9.37913 7.284407,11.39782 7.966688,7.686203 7.966688,7.686203 C 47.449389,86.234173 43.83292,78.5261 43.83292,78.5261 a 942.06485,942.06485 0 0 1 -2.573719,-8.911208 c 0.270712,-5.767885 -2.022614,-4.379844 -0.540573,-5.534113 1.386344,-1.081567 1.40615,-3.697136 2.265011,-4.379148 0.469371,1.565282 1.536733,3.316611 3.543727,5.217681 0,0 4.065595,5.802523 8.616314,4.546067 0,0 4.240605,-0.782677 1.553908,-10.648594 0,0 -0.164644,-2.968629 -1.696855,-5.269853 0.978506,-0.568819 3.243375,1.241539 5.053743,0.756705 1.824133,-0.481146 -0.675533,0.502484 4.089282,3.77806 0,0 4.270978,5.664555 5.548585,7.43411 0,0 3.956667,7.534928 2.326375,9.916886 0,0 3.37057,1.693583 -1.316815,-10.996151 0,0 -3.41229,-6.712945 -5.824132,-7.850918 0,0 -1.249791,-2.258741 -3.59215,-3.743198 0,0 -5.237809,-2.005826 -6.435321,-1.037159 0,0 -0.534438,-0.180081 -1.645655,-0.694188 l -0.947333,0.08545 0.01374,0.09096 a 5.7094839,5.7094839 0 0 0 -2.243485,-0.376178 l 0.427273,-0.264138 1.292882,-0.319856 c 0,0 1.312864,0.238685 1.848678,-0.34795 0,0 1.289034,0.593715 2.204773,-0.318918 0,0 2.442295,-0.723638 2.988514,-1.312403 0,0 4.247972,-3.104086 4.65001,-2.861137 0,0 1.184323,-0.749697 0.887809,-1.47822 0,0 4.221398,-2.757167 3.721405,-5.258779 z"
     style="display:none;fill:#a4572a;fill-opacity:1;fill-rule:nonzero;stroke:#ca642f;stroke-width:0.314022;stroke-linecap:butt;stroke-linejoin:miter;stroke-miterlimit:4;stroke-dasharray:none;stroke-opacity:1" />
</svg>
